<svg preserveAspectRatio="none" width="100%" height="100%" overflow="visible" style="display: block;" viewBox="0 0 12 18" fill="none" xmlns="http://www.w3.org/2000/svg">
<g id="logos:google-maps" clip-path="url(#clip0_0_55)">
<path id="Vector" d="M3.30872 13.334C3.80623 13.9975 4.25906 14.6963 4.66393 15.4254C5.00958 16.1112 5.15368 16.5762 5.40629 17.4025C5.56121 17.859 5.70122 17.9953 6.00225 17.9953C6.33029 17.9953 6.47911 17.7635 6.5941 17.405C6.83288 16.6247 7.02024 16.0292 7.31583 15.4665C7.89586 14.3801 8.61661 13.4147 9.3248 12.4869C9.51652 12.2243 10.7561 10.6945 11.3141 9.48741C11.3141 9.48741 12 8.16144 12 6.3096C12 4.57738 11.3236 3.37599 11.3236 3.37599L9.37618 3.92168L8.19352 7.18086L7.90093 7.63027L7.84243 7.71169L7.76461 7.81361L7.62802 7.97639L7.43283 8.18057L6.37969 9.07832L3.74672 10.669L3.30872 13.334Z" fill="var(--fill-0, #34A853)"/>
<path id="Vector_2" d="M0.591031 9.26454C1.23364 10.8003 2.47283 12.1504 3.31123 13.3351L7.76441 7.81576C7.76441 7.81576 7.13703 8.67427 5.999 8.67427C4.73136 8.67427 3.70728 7.61512 3.70728 6.27958C3.70728 5.36374 4.23387 4.73458 4.23387 4.73458L1.21095 5.5821L0.591031 9.26454Z" fill="var(--fill-0, #FBBC04)"/>
<path id="Vector_3" d="M7.8141 0.283924C9.2931 0.782872 10.559 1.83035 11.3247 3.37497L7.76573 7.81258C7.76573 7.81258 8.29232 7.17204 8.29232 6.26188C8.29232 4.89526 7.19249 3.87431 6.00435 3.87431C4.8808 3.87431 4.23552 4.73139 4.23552 4.73139V1.93575L7.8141 0.283924Z" fill="var(--fill-0, #4285F4)"/>
<path id="Vector_4" d="M1.40706 2.2446C2.29042 1.13876 3.84479 0 5.98773 0C7.02742 0 7.8107 0.285597 7.8107 0.285597L4.23245 4.73375H1.69722L1.40706 2.2446Z" fill="var(--fill-0, #1A73E8)"/>
<path id="Vector_5" d="M0.591225 9.2645C0.591225 9.2645 3.78873e-05 8.05315 3.78873e-05 6.29827C3.78873e-05 4.63967 0.616257 3.18986 1.40699 2.24464L4.2344 4.73419L0.591225 9.2645Z" fill="var(--fill-0, #EA4335)"/>
</g>
<defs>
<clipPath id="clip0_0_55">
<rect width="12" height="18" fill="white"/>
</clipPath>
</defs>
</svg>
