<svg preserveAspectRatio="none" width="100%" height="100%" overflow="visible" style="display: block;" viewBox="0 0 22.3428 15.0284" fill="none" xmlns="http://www.w3.org/2000/svg">
<g id="Group">
<path id="Vector" fill-rule="evenodd" clip-rule="evenodd" d="M15.9497 13.4049C16.0729 13.4577 16.1891 13.5351 16.3299 13.5598C16.3545 13.5633 16.3791 13.5809 16.4038 13.5879C16.4355 13.5985 16.4671 13.6055 16.4988 13.6126C16.5657 13.6266 16.6326 13.6302 16.6995 13.6513C16.7488 13.6654 16.7945 13.6689 16.8438 13.6689C17.1712 13.6689 17.495 13.6724 17.8224 13.6724C18.0653 13.6724 18.3117 13.6724 18.5546 13.6689C18.6144 13.6689 18.6707 13.6654 18.7306 13.6689C18.7834 13.6724 18.8256 13.6548 18.8608 13.6196C18.8679 13.5914 18.8643 13.5703 18.8467 13.5457C18.7763 13.4506 18.7024 13.3556 18.6215 13.2676C18.5863 13.2289 18.5475 13.1937 18.5229 13.1479C18.4771 13.0634 18.4067 13.0001 18.3398 12.9332C18.2941 12.8839 18.2448 12.8381 18.2096 12.7783C18.2061 12.7748 18.2061 12.7712 18.2026 12.7712C18.111 12.6938 18.0442 12.5917 17.9667 12.5002C17.8963 12.4157 17.8224 12.3347 17.7555 12.2467C17.6816 12.1517 17.6217 12.0496 17.5725 11.9405C17.5302 11.8419 17.5056 11.7363 17.5478 11.6307C17.5795 11.5462 17.6288 11.4758 17.6992 11.4195C17.7696 11.3632 17.847 11.328 17.9386 11.3174C17.9562 11.3139 17.9773 11.3069 17.9949 11.3034C18.0054 11.2998 18.0195 11.2998 18.0336 11.2998C18.1498 11.3139 18.3222 11.3104 18.4208 11.3034C18.4736 11.2963 18.5264 11.2963 18.5757 11.2963C18.889 11.2963 19.2023 11.2998 19.5156 11.2963C19.5719 11.2963 19.6177 11.3139 19.6669 11.328C19.7162 11.3456 19.7444 11.3914 19.7409 11.4442C19.7373 11.5779 19.7373 11.7082 19.6916 11.8384C19.6669 11.9123 19.6388 11.9827 19.6071 12.0531C19.593 12.0883 19.5719 12.113 19.5437 12.1341C19.5191 12.1306 19.5156 12.1165 19.5156 12.0989C19.5156 12.0531 19.5191 12.0074 19.5226 11.9616C19.5261 11.9088 19.5015 11.8595 19.4839 11.8138C19.4522 11.7398 19.3853 11.7117 19.3079 11.7117C18.9876 11.7117 18.6707 11.7117 18.3504 11.7117C18.2976 11.7117 18.2483 11.7222 18.2026 11.7574C18.1427 11.7997 18.1322 11.8666 18.1744 11.9264C18.2342 12.0039 18.2941 12.0778 18.3539 12.1552C18.4314 12.2538 18.5088 12.3559 18.5827 12.4544C18.5933 12.4685 18.6003 12.4791 18.6109 12.4932C18.6461 12.5354 18.6813 12.5741 18.713 12.6199C18.7411 12.6656 18.7834 12.7044 18.8151 12.7501C18.8643 12.8135 18.9207 12.8733 18.97 12.9367C19.058 13.0458 19.1424 13.1549 19.2269 13.2641C19.2375 13.2781 19.248 13.2957 19.2621 13.3098C19.3325 13.3837 19.3924 13.4717 19.4592 13.5492C19.5156 13.6161 19.5367 13.7006 19.5402 13.7815C19.5437 13.8238 19.5226 13.8695 19.5015 13.9082C19.4839 13.9399 19.4592 13.9646 19.4311 13.9892C19.3396 14.0596 19.2375 14.0913 19.1248 14.0807C19.1037 14.0772 19.0861 14.0772 19.065 14.0772C18.6919 14.0983 18.3152 14.0948 17.9421 14.0983C17.6288 14.0983 17.3155 14.0983 17.0022 14.0983C16.9353 14.0983 16.872 14.0983 16.8086 14.0843C16.784 14.0772 16.7558 14.0772 16.7312 14.0772C16.6079 14.0737 16.4847 14.0526 16.3651 14.0244C16.3017 14.0103 16.2383 14.0068 16.175 13.9892C16.1222 13.9751 16.0694 13.954 16.0201 13.9364C15.925 13.9012 15.8335 13.8625 15.7385 13.8273C15.6575 13.7956 15.5836 13.7498 15.5097 13.7041C15.4287 13.6548 15.3653 13.5844 15.2985 13.521C15.2316 13.4541 15.1612 13.3908 15.1084 13.3133C15.0661 13.25 15.0098 13.1937 14.964 13.1303C14.869 13.0001 14.781 12.8663 14.7458 12.7044C14.7423 12.6938 14.7352 12.6868 14.7317 12.6797C14.7141 12.6304 14.693 12.5847 14.686 12.5319C14.6789 12.4826 14.6543 12.4333 14.6578 12.3805C14.6578 12.3664 14.6578 12.3523 14.6543 12.3418C14.6156 12.208 14.6296 12.0707 14.6367 11.9335C14.6402 11.856 14.6578 11.775 14.686 11.6976C14.7106 11.6307 14.7282 11.5603 14.774 11.504C14.8303 11.4301 14.8831 11.3491 14.9711 11.3104C14.9922 11.2998 15.0133 11.2928 15.0344 11.2928C15.6505 11.2998 16.2665 11.2963 16.879 11.2928C16.9635 11.2928 17.0409 11.3174 17.1078 11.3562C17.1782 11.3984 17.2134 11.4758 17.2451 11.5533C17.2521 11.5709 17.2521 11.592 17.2521 11.6096C17.2521 11.7011 17.2521 11.7926 17.2521 11.8842C17.2521 11.9123 17.2416 11.9405 17.231 11.9687C17.2028 12.0637 17.1676 12.1587 17.1113 12.2432C17.0761 12.296 17.0339 12.3453 16.9987 12.4016C16.9248 12.5178 16.8227 12.6093 16.7276 12.7044C16.6396 12.7924 16.5516 12.8768 16.4531 12.9508C16.4249 12.9719 16.3932 12.986 16.3651 13.0071C16.3404 13.0282 16.3263 13.0564 16.2876 13.0634C16.2735 13.0669 16.263 13.0845 16.2524 13.0916C16.182 13.1479 16.1116 13.2042 16.0412 13.2605C16.013 13.2817 15.9884 13.3063 15.9602 13.3309C15.9356 13.3556 15.9391 13.3767 15.9497 13.4049ZM16.6431 11.7187C16.6044 11.7222 16.5727 11.7258 16.5411 11.7258C16.2313 11.7258 15.9215 11.7258 15.6118 11.7258C15.5484 11.7258 15.4885 11.7258 15.4252 11.7222C15.3337 11.7152 15.2105 11.7786 15.1788 11.8595C15.126 11.9827 15.0908 12.1095 15.1436 12.2467C15.1471 12.2573 15.1506 12.2714 15.1506 12.2855C15.1471 12.3594 15.1717 12.4263 15.1964 12.4932C15.2316 12.5917 15.2703 12.6868 15.3266 12.7748C15.3829 12.8663 15.4322 12.9613 15.5097 13.0353C15.5449 13.0705 15.5625 13.074 15.5977 13.0388C15.6153 13.0212 15.6329 12.9965 15.654 12.9895C15.7103 12.9684 15.749 12.9226 15.7948 12.8909C15.8898 12.824 15.9778 12.7501 16.0658 12.6727C16.2172 12.5424 16.3686 12.4087 16.5129 12.2714C16.5657 12.2221 16.6185 12.1658 16.6607 12.1024C16.6959 12.0531 16.7382 12.0074 16.7593 11.9475C16.791 11.856 16.7699 11.7962 16.6819 11.7434C16.6713 11.7363 16.6537 11.7258 16.6431 11.7187Z" fill="var(--fill-0, #A88B46)"/>
<path id="Vector_2" fill-rule="evenodd" clip-rule="evenodd" d="M1.52069 11.7539C1.53829 11.7187 1.54181 11.6975 1.55238 11.6835C1.61926 11.5814 1.6439 11.4652 1.68966 11.3561C1.70022 11.3279 1.71078 11.3033 1.72486 11.2716C1.86919 11.2646 2.00999 11.2716 2.15432 11.2681C2.29864 11.2681 2.43945 11.2681 2.58377 11.2681C2.7281 11.2681 2.8689 11.2681 3.01675 11.2681C3.02027 11.2927 3.02731 11.3103 3.02731 11.3279C3.02731 11.3491 3.02731 11.3667 3.02731 11.3878C3.02731 12.2432 3.02731 13.1021 3.02731 13.9575C3.02731 13.9821 3.02731 14.0103 3.02731 14.0349C3.02379 14.0842 3.00267 14.1018 2.95339 14.0983C2.93578 14.0983 2.9217 14.0948 2.9041 14.0912C2.85482 14.0877 2.80554 14.0772 2.75978 14.0772C2.63305 14.0807 2.50985 14.049 2.38313 14.0314C2.27752 14.0173 2.17896 13.9751 2.06983 13.961C2.03815 13.9575 2.00999 13.9363 1.97831 13.9258C1.92551 13.9082 1.86919 13.9011 1.82342 13.8765C1.7671 13.8483 1.71078 13.8272 1.65446 13.7991C1.55238 13.7498 1.45381 13.6935 1.35877 13.6336C1.27781 13.5808 1.19332 13.5315 1.12292 13.4647C1.02084 13.3696 0.911712 13.2851 0.816669 13.1795C0.644183 12.9824 0.489297 12.7712 0.362573 12.5389C0.306251 12.4368 0.256969 12.3312 0.214728 12.222C0.147845 12.0531 0.084483 11.8841 0.0492818 11.7081C0.0457616 11.6764 0.0387214 11.6377 0.0211207 11.6025C-4.19632e-09 11.5567 0 11.5075 0 11.4582C0 11.2364 0 11.0146 0 10.7929C0 10.7506 0.0105604 10.7084 0.0246409 10.6697C0.0668824 10.5324 0.119684 10.4021 0.200647 10.2825C0.256969 10.2015 0.316811 10.117 0.401294 10.0642C0.408335 10.0607 0.415375 10.0501 0.422415 10.0431C0.464657 9.99733 0.517458 9.98325 0.580821 9.98325C1.31301 9.98677 2.04871 9.98677 2.7809 9.98325C2.8865 9.98325 2.9393 10.0431 2.98155 10.1205C3.02731 10.2085 3.04491 10.3036 3.03083 10.4057C2.95339 10.5007 2.87594 10.5993 2.7985 10.6978C2.77034 10.733 2.75274 10.7753 2.7281 10.814C2.72106 10.8246 2.69642 10.8281 2.67178 10.8351C2.6753 10.7823 2.67178 10.7366 2.67882 10.6943C2.68938 10.6169 2.66474 10.5465 2.64713 10.4725C2.63657 10.4303 2.60489 10.4092 2.55913 10.4127C2.06279 10.4162 1.56998 10.4162 1.07364 10.4197C1.02788 10.4197 0.982115 10.4197 0.936353 10.4162C0.872991 10.4127 0.820189 10.4409 0.767387 10.4796C0.700505 10.5289 0.658263 10.5993 0.633623 10.6732C0.608982 10.7436 0.57378 10.8105 0.577301 10.8879C0.535059 11.0498 0.5597 11.2118 0.55618 11.3737C0.584341 11.4582 0.56322 11.5497 0.601941 11.6307C0.605462 11.6377 0.605462 11.6483 0.605462 11.6588C0.608982 11.7785 0.647703 11.8912 0.686424 12.0038C0.725146 12.1129 0.767387 12.222 0.823709 12.3241C0.865951 12.4086 0.911712 12.4896 0.964514 12.567C1.03844 12.6761 1.11588 12.7747 1.21092 12.8662C1.24964 12.9366 1.32357 12.9718 1.37285 13.0317C1.40453 13.0669 1.45381 13.0704 1.48197 13.1091C1.50661 13.1443 1.54886 13.169 1.58758 13.1901C1.62982 13.2112 1.66854 13.2464 1.70726 13.271C1.83751 13.352 2.07687 13.4752 2.21768 13.5175C2.29512 13.5421 2.36904 13.5738 2.44297 13.6019C2.46057 13.609 2.48169 13.6125 2.49929 13.6125C2.54153 13.616 2.55913 13.5949 2.55561 13.5527C2.55209 13.4999 2.54505 13.4506 2.54505 13.3978C2.54505 12.912 2.54505 12.4262 2.54505 11.9404C2.54505 11.8806 2.53801 11.8243 2.55209 11.7644C2.56265 11.7257 2.52745 11.694 2.48873 11.7011C2.41481 11.7187 2.34088 11.7046 2.26696 11.7046C2.06983 11.7081 1.87623 11.7011 1.6791 11.7011C1.66502 11.7011 1.64742 11.7081 1.63334 11.7116C1.60166 11.7292 1.56998 11.7398 1.52069 11.7539Z" fill="var(--fill-0, #A88B46)"/>
<path id="Vector_3" fill-rule="evenodd" clip-rule="evenodd" d="M7.66333 6.03019C7.69149 6.07947 7.71965 6.1358 7.75485 6.18508C7.82173 6.28012 7.89566 6.37164 7.98718 6.44205C8.08222 6.51597 8.17375 6.59693 8.26879 6.66734C8.33215 6.7131 8.40255 6.7483 8.46592 6.79054C8.4976 6.80814 8.52576 6.82926 8.55744 6.84686C8.70529 6.93487 8.85665 7.01231 9.01154 7.08975C9.01858 7.09327 9.02914 7.10031 9.03266 7.10383C9.04322 7.12847 9.03266 7.14255 9.0221 7.16015C8.97985 7.22 8.96225 7.29744 8.90945 7.35024C8.90593 7.35376 8.90241 7.3608 8.90241 7.36784C8.88129 7.45936 8.80737 7.48048 8.72993 7.50161C8.65248 7.52273 8.57152 7.53681 8.4976 7.56497C8.45184 7.58257 8.41311 7.61073 8.37439 7.63889C8.31807 7.68113 8.26175 7.72689 8.20543 7.77265C8.15967 7.80786 8.11038 7.84306 8.07166 7.8853C8.00126 7.96626 7.91678 8.0261 7.83229 8.08595C7.77597 8.12467 7.71613 8.15635 7.65629 8.19155C7.62109 8.21267 7.57884 8.22675 7.54364 8.24435C7.50492 8.26195 7.4662 8.27955 7.431 8.29715C7.42396 8.30067 7.4134 8.30419 7.40284 8.30771C7.30075 8.37812 7.19867 8.445 7.11771 8.54004C7.08955 8.57172 7.06491 8.60692 7.04731 8.64565C6.96986 8.81109 6.86074 8.95542 6.77978 9.11734C6.74458 9.18775 6.70233 9.26167 6.67769 9.33911C6.65305 9.41303 6.64601 9.49048 6.63545 9.56792C6.62841 9.61016 6.62137 9.6524 6.61785 9.69464C6.60729 9.82841 6.58969 9.95865 6.58617 10.0924C6.58617 10.1558 6.61785 10.2156 6.64953 10.2755C6.69881 10.374 6.7833 10.4409 6.86074 10.5113C6.93818 10.5852 7.01914 10.6592 7.09659 10.7296C7.14587 10.7718 7.19163 10.8176 7.24091 10.8598C7.24443 10.8633 7.25499 10.8668 7.25499 10.8739C7.25851 10.8844 7.25851 10.8985 7.25499 10.9091C7.25147 10.9161 7.24091 10.9196 7.23035 10.9196C7.20571 10.9196 7.18811 10.9091 7.17051 10.8915C7.05787 10.8035 6.9593 10.7014 6.85722 10.5993C6.84666 10.5888 6.83258 10.5782 6.8185 10.5712C6.80794 10.5676 6.79386 10.5712 6.7833 10.5712C6.7833 10.5817 6.77978 10.5993 6.7833 10.6064C6.81146 10.6416 6.83962 10.6768 6.8713 10.7084C6.92058 10.7612 6.96986 10.8105 7.01914 10.8633C7.02971 10.8739 7.03675 10.8915 7.04731 10.9091C7.0297 10.9161 7.01562 10.9267 7.00154 10.9267C6.96986 10.9267 6.93818 10.9196 6.9065 10.9161C6.53337 10.9161 6.16375 10.9161 5.79062 10.9161C5.7695 10.9161 5.74486 10.9126 5.72374 10.9126C5.6815 10.8598 5.6463 10.8035 5.66038 10.7331C5.6639 10.7014 5.67798 10.6697 5.68854 10.6416C5.70614 10.6028 5.72726 10.5676 5.74486 10.5289C5.77302 10.4691 5.77302 10.4092 5.74838 10.3494C5.72726 10.2931 5.6991 10.2367 5.65686 10.1875C5.62517 10.1523 5.62518 10.1135 5.63574 10.0678C5.65686 9.99385 5.6991 9.93401 5.74134 9.87417C5.80118 9.78969 5.8575 9.70168 5.92087 9.62072C5.97367 9.55032 5.99831 9.46584 6.05463 9.39895C6.07927 9.30743 6.13559 9.22999 6.17079 9.14198C6.19896 9.07158 6.20952 8.99766 6.22008 8.92374C6.22712 8.87445 6.23768 8.82869 6.24472 8.77941C6.24824 8.76181 6.25176 8.74069 6.25176 8.72309C6.24472 8.64565 6.26232 8.57524 6.27992 8.50132C6.29048 8.45908 6.31864 8.42036 6.33624 8.37812C6.34328 8.36052 6.35384 8.34292 6.35736 8.32531C6.36088 8.31475 6.35736 8.29715 6.3644 8.28659C6.39608 8.24083 6.38904 8.18803 6.38904 8.13523C6.39256 8.0085 6.38904 8.01202 6.50521 7.95218C6.57913 7.91346 6.66361 7.89234 6.72697 7.8325C6.8009 7.8149 6.86074 7.76913 6.9241 7.73041C7.10011 7.62481 7.20923 7.47344 7.26203 7.2728C7.29723 7.13903 7.27611 7.01583 7.22331 6.89262C7.17755 6.78702 7.15643 6.6779 7.14235 6.56173C7.12475 6.39981 7.19515 6.28012 7.31484 6.18156C7.343 6.15692 7.37116 6.1358 7.39932 6.11468C7.42044 6.1006 7.44508 6.08651 7.4662 6.07595C7.49436 6.06187 7.52604 6.05483 7.5542 6.04075C7.59997 6.02667 7.59997 6.02667 7.66333 6.03019Z" fill="var(--fill-0, #A88B46)"/>
<path id="Vector_4" fill-rule="evenodd" clip-rule="evenodd" d="M5.55817 14.5912C5.64969 14.5947 5.73418 14.5982 5.81866 14.5736C5.83978 14.5665 5.86442 14.57 5.88554 14.57C5.93834 14.57 5.99115 14.5736 6.03691 14.5489C6.04395 14.5454 6.05451 14.5454 6.06507 14.5419C6.28332 14.5313 6.48748 14.4574 6.68813 14.3764C6.82894 14.3201 6.9627 14.2427 7.08239 14.1511C7.17743 14.0772 7.26543 13.9927 7.33231 13.8942C7.37808 13.8273 7.40976 13.7534 7.44496 13.683C7.452 13.6689 7.44496 13.6442 7.44496 13.6231C7.4168 13.6231 7.39216 13.6196 7.36752 13.6196C7.33583 13.6161 7.30415 13.609 7.27247 13.6055C7.24783 13.602 7.21967 13.595 7.19503 13.595C7.13519 13.595 7.07887 13.5809 7.02254 13.5633C6.98734 13.5527 6.95214 13.5351 6.9099 13.5351C6.8923 13.5351 6.8747 13.521 6.8571 13.5175C6.81838 13.507 6.78318 13.4788 6.73741 13.4788C6.72685 13.4788 6.71981 13.4753 6.70925 13.4682C6.62125 13.4154 6.51917 13.3908 6.43116 13.3345C6.32204 13.2676 6.20939 13.2007 6.11435 13.1092C6.10379 13.0986 6.09675 13.0881 6.08619 13.0845C6.02635 13.0634 6.00171 13.0071 5.95947 12.9719C5.9313 12.9508 5.91018 12.9156 5.88906 12.8839C5.86794 12.8557 5.8433 12.8276 5.82218 12.7994C5.79754 12.7677 5.76938 12.7396 5.75178 12.7079C5.71658 12.648 5.6849 12.5812 5.64969 12.5213C5.58985 12.4087 5.56521 12.2855 5.52297 12.1693C5.52297 12.0743 5.48073 11.9863 5.47369 11.8912C5.46665 11.8032 5.45961 11.7152 5.47017 11.6272C5.47721 11.5533 5.49833 11.4794 5.52649 11.4125C5.54761 11.3632 5.59689 11.328 5.64617 11.2998C5.65674 11.2928 5.67082 11.2928 5.6849 11.2928C5.70602 11.2928 5.73066 11.2928 5.75178 11.2928C6.48044 11.2928 7.20911 11.2928 7.9413 11.2928C8.08914 11.2928 8.0821 11.2893 8.0821 11.4301C8.0821 12.0602 8.0821 12.6938 8.0821 13.3239C8.0821 13.4612 8.05394 13.5914 8.00114 13.7182C7.9589 13.8202 7.90962 13.9153 7.84625 14.0068C7.80401 14.0667 7.76529 14.13 7.71249 14.1828C7.67025 14.2251 7.63153 14.2743 7.5928 14.3236C7.54 14.387 7.47312 14.4363 7.40624 14.482C7.26543 14.5806 7.12111 14.6721 6.9627 14.7425C6.8747 14.7812 6.7867 14.8235 6.69165 14.8446C6.63181 14.8587 6.57549 14.8833 6.51917 14.9044C6.50156 14.9115 6.48044 14.915 6.46284 14.9185C6.42412 14.922 6.3854 14.9185 6.3502 14.9396C6.33964 14.9467 6.32556 14.9432 6.31148 14.9432C6.2974 14.9432 6.28332 14.9396 6.27276 14.9467C6.18827 14.9854 6.09675 14.9819 6.00523 14.9925C5.91722 15.003 5.82922 15.0065 5.74122 15.0136C5.70602 15.0171 5.67082 15.0241 5.63561 15.0277C5.60393 15.0312 5.57929 15.0171 5.56873 14.9819C5.55817 14.9467 5.54409 14.908 5.53705 14.8692C5.51241 14.7636 5.48777 14.6545 5.43849 14.5595C5.43497 14.5524 5.43145 14.5489 5.43145 14.5419C5.43145 14.5313 5.43145 14.5137 5.43849 14.5067C5.44553 14.5032 5.46313 14.5032 5.47369 14.5102C5.48777 14.5172 5.49833 14.5313 5.51241 14.5419C5.53001 14.5595 5.54057 14.5736 5.55817 14.5912ZM7.55408 13.1233C7.5928 13.0775 7.61392 13.0423 7.60688 12.986C7.59632 12.9121 7.60336 12.8381 7.60336 12.7642C7.60336 12.5812 7.59984 12.3981 7.60336 12.2186C7.60336 12.1059 7.59984 11.9898 7.6104 11.8771C7.61392 11.849 7.60688 11.8173 7.60336 11.7891C7.5928 11.7399 7.5576 11.7117 7.50832 11.7047C7.49072 11.7011 7.47664 11.7047 7.45904 11.7047C7.07887 11.7047 6.69869 11.7047 6.315 11.7082C6.25868 11.7082 6.20587 11.7082 6.14955 11.7082C6.05803 11.7117 5.99467 11.7751 5.98411 11.8666C5.97003 12.0039 6.00523 12.1376 6.01227 12.2749C6.01227 12.282 6.01579 12.289 6.01579 12.2925C6.06859 12.3876 6.10731 12.4932 6.18123 12.5776C6.21644 12.6199 6.25868 12.6551 6.29388 12.6973C6.37132 12.7818 6.50157 12.8557 6.59661 12.9121C6.67053 12.9543 6.74445 12.9895 6.82894 13.0036C6.87118 13.0106 6.91342 13.0353 6.95566 13.0458C7.02254 13.0634 7.09295 13.081 7.16335 13.0916C7.21263 13.0986 7.25487 13.1233 7.30415 13.1268C7.38864 13.1233 7.4696 13.1233 7.55408 13.1233Z" fill="var(--fill-0, #A88B46)"/>
<path id="Vector_5" fill-rule="evenodd" clip-rule="evenodd" d="M12.8343 14.0983C12.69 14.0983 12.5597 14.0983 12.4295 14.0983C12.4119 14.0737 12.4154 14.0491 12.433 14.0244C12.5421 13.8871 12.5984 13.7287 12.6372 13.5598C12.6407 13.5457 12.6477 13.5281 12.6548 13.514C12.6688 13.4682 12.6794 13.419 12.6935 13.3732C12.7287 13.2465 12.7252 13.1162 12.7428 12.986C12.7568 12.8769 12.7639 12.7642 12.7322 12.6551C12.7287 12.641 12.7252 12.6305 12.7252 12.6164C12.7252 12.4791 12.6759 12.3559 12.6336 12.2327C12.602 12.1376 12.5562 12.0496 12.4893 11.9722C12.4576 11.937 12.44 11.8877 12.4013 11.8595C12.345 11.8173 12.2922 11.768 12.2323 11.7293C12.2112 11.7152 12.1831 11.7082 12.1584 11.7082C12.0387 11.7047 11.9191 11.7082 11.7959 11.7082C11.7818 11.7223 11.7677 11.7399 11.7501 11.7575C11.7219 11.7856 11.7114 11.8208 11.7114 11.8631C11.7114 12.0109 11.7114 12.1552 11.7114 12.3031C11.7114 12.8593 11.7114 13.419 11.7114 13.9751C11.7114 14.0068 11.7184 14.0385 11.6973 14.0737C11.6832 14.0772 11.6691 14.0807 11.6515 14.0807C11.5424 14.0807 11.4298 14.0807 11.3206 14.0807C11.2326 14.0807 11.2256 14.0702 11.2256 13.9857C11.2256 13.7287 11.2291 13.4718 11.2291 13.2148C11.2291 12.7713 11.2291 12.3277 11.2291 11.8842C11.2291 11.8419 11.2291 11.7997 11.2291 11.7575C11.2256 11.6835 11.1974 11.6131 11.1798 11.5427C11.1693 11.4935 11.1517 11.4442 11.1235 11.4019C11.0918 11.3526 11.1235 11.2998 11.1834 11.2998C11.2784 11.2963 11.3734 11.2963 11.465 11.2963C11.6902 11.2963 11.9155 11.2963 12.1408 11.2963C12.2147 11.2963 12.2887 11.2928 12.3626 11.321C12.4048 11.335 12.4506 11.321 12.4964 11.3386C12.5316 11.3527 12.5703 11.3597 12.602 11.3879C12.6231 11.409 12.6477 11.4055 12.6759 11.3984C12.8237 11.3562 12.9716 11.3245 13.1265 11.3245C13.1828 11.3245 13.2356 11.321 13.2919 11.3174C13.401 11.3104 13.5137 11.321 13.6228 11.3421C13.7425 11.3632 13.8516 11.4125 13.9502 11.4829C14.0417 11.5463 14.1191 11.6237 14.1755 11.7187C14.1966 11.7539 14.2247 11.7856 14.2459 11.8243C14.2599 11.8455 14.2705 11.8701 14.2811 11.8947C14.2846 11.9053 14.2846 11.9229 14.2916 11.93C14.3374 11.9968 14.3479 12.0743 14.362 12.1482C14.3655 12.1623 14.3726 12.1799 14.3796 12.194C14.3831 12.2045 14.3902 12.2116 14.3902 12.2186C14.3831 12.3101 14.4219 12.3981 14.4183 12.4897C14.4148 12.6129 14.4183 12.7361 14.4183 12.8628C14.4183 12.9332 14.4254 13.0071 14.3972 13.074C14.3902 13.0951 14.3937 13.1198 14.3902 13.1409C14.3902 13.1761 14.3937 13.2113 14.3691 13.243C14.362 13.2535 14.362 13.2676 14.3585 13.2817C14.3444 13.4295 14.2916 13.5633 14.2388 13.6971C14.2142 13.7639 14.179 13.8273 14.1473 13.8907C14.1191 13.9505 14.0875 14.0139 14.0523 14.0702C14.0382 14.0948 14.01 14.1089 13.9889 14.1335C13.915 14.1124 13.841 14.1371 13.7671 14.1124C13.753 14.1089 13.7354 14.1159 13.7214 14.1195C13.7073 14.123 13.6897 14.1335 13.6756 14.1335C13.658 14.1335 13.6369 14.13 13.6228 14.1159C13.6052 14.1019 13.6158 14.0772 13.6263 14.0631C13.7038 13.9646 13.746 13.8484 13.7918 13.7358C13.8622 13.5633 13.929 13.3873 13.9643 13.2007C13.9819 13.1092 14.01 13.0177 14.003 12.9226C13.9995 12.898 14.003 12.8698 14.01 12.8452C14.0311 12.7501 14.0347 12.6586 14.0135 12.5636C14.0065 12.5354 14.0065 12.5037 14.003 12.4756C13.9924 12.2679 13.922 12.0848 13.7812 11.93C13.7249 11.8666 13.6615 11.8067 13.5841 11.7751C13.5066 11.7469 13.4327 11.6976 13.3412 11.7223C13.3201 11.7293 13.2954 11.7258 13.2743 11.7258C13.1687 11.7223 13.0666 11.7363 12.961 11.7187C12.9505 11.7152 12.9364 11.7187 12.9223 11.7223C12.8625 11.7363 12.8378 11.7821 12.8765 11.8314C12.9012 11.8595 12.9117 11.8912 12.9188 11.9264C12.9645 11.9511 12.9681 12.0004 12.9892 12.0391C13.0807 12.194 13.1265 12.3664 13.1757 12.5389C13.1793 12.5495 13.1793 12.5565 13.1793 12.5671C13.1863 12.7185 13.2004 12.8733 13.1863 13.0247C13.1828 13.0599 13.1828 13.0951 13.1828 13.1338C13.1793 13.2641 13.1546 13.3908 13.1159 13.5175C13.0737 13.6654 12.9927 13.7956 12.9293 13.9329C12.9188 13.9611 12.9012 13.9857 12.8871 14.0103C12.873 14.0385 12.8519 14.0667 12.8343 14.0983Z" fill="var(--fill-0, #A88B46)"/>
<path id="Vector_6" fill-rule="evenodd" clip-rule="evenodd" d="M15.918 7.05089C15.9285 7.01921 15.9426 6.99809 15.9673 6.98401C16.0588 6.92417 16.1503 6.86432 16.2454 6.80448C16.2594 6.79744 16.2735 6.79392 16.2911 6.78688C16.3439 6.76576 16.4002 6.75168 16.4566 6.73056C16.5164 6.70592 16.5798 6.69536 16.6431 6.67776C16.7135 6.66016 16.7804 6.6496 16.8543 6.66368C16.9142 6.67424 16.9775 6.67424 17.0374 6.67776C17.0479 6.67776 17.0585 6.67424 17.0655 6.68128C17.1219 6.71648 17.1852 6.7024 17.2451 6.71296C17.3542 6.80448 17.3894 6.93473 17.4457 7.05441C17.4528 7.1741 17.5056 7.2797 17.5478 7.38882C17.5584 7.41698 17.5724 7.44163 17.5865 7.46627C17.5936 7.48387 17.6041 7.50147 17.6112 7.51907C17.6499 7.60707 17.6886 7.6986 17.7238 7.7866C17.7449 7.8394 17.7801 7.88868 17.7977 7.94148C17.8153 7.99781 17.8435 8.05061 17.8681 8.09989C17.9421 8.25477 18.016 8.40966 18.0829 8.56455C18.1392 8.69479 18.199 8.82504 18.2659 8.94824C18.3187 9.05032 18.3856 9.14889 18.4454 9.24745C18.4736 9.29321 18.5018 9.33545 18.5264 9.37769C18.5898 9.49386 18.6707 9.59946 18.7446 9.71211C18.8045 9.79659 18.8714 9.87403 18.9171 9.96908C18.9312 10.0008 18.9488 10.0324 18.9523 10.0676C18.9594 10.1204 18.9875 10.1627 19.0227 10.2014C19.0826 10.2718 19.1389 10.3457 19.1952 10.4232C19.248 10.4971 19.3043 10.5675 19.3571 10.6414C19.3994 10.7013 19.4416 10.7576 19.4909 10.8069C19.505 10.8209 19.5085 10.8385 19.5226 10.8632C19.498 10.8667 19.4839 10.8737 19.4698 10.8702C19.4029 10.8597 19.3395 10.8385 19.3008 10.7717C19.2621 10.7013 19.2128 10.6379 19.1671 10.571C19.1495 10.5464 19.1248 10.5217 19.1002 10.5006C19.0931 10.4971 19.0755 10.4936 19.072 10.4971C19.065 10.5041 19.0579 10.5217 19.0615 10.5288C19.0685 10.5464 19.0791 10.564 19.0896 10.5781C19.1319 10.6449 19.1741 10.7083 19.2128 10.7752C19.2234 10.7893 19.2234 10.8104 19.2269 10.835C19.2058 10.8385 19.1917 10.8385 19.1741 10.8385C18.9347 10.8385 18.6989 10.8385 18.4595 10.8385C18.4138 10.8385 18.375 10.8245 18.3469 10.7928C18.3082 10.7541 18.2694 10.7118 18.2342 10.6731C18.2096 10.6414 18.2096 10.6062 18.2342 10.5745C18.2483 10.5534 18.2624 10.5323 18.2835 10.5147C18.3293 10.4725 18.3504 10.4197 18.368 10.3633C18.3856 10.314 18.375 10.2824 18.3328 10.2542C18.3046 10.2331 18.2765 10.2155 18.2377 10.212C18.1955 10.2084 18.1533 10.1944 18.1181 10.1768C18.0617 10.1521 18.023 10.1099 18.0125 10.0465C18.0089 10.0254 18.0054 10.0008 18.0019 9.97964C17.9949 9.90571 17.9878 9.83179 17.9808 9.75787C17.9808 9.74027 17.9843 9.71915 17.9843 9.70155C17.9808 9.64874 17.9737 9.59946 17.9315 9.56074C17.9139 9.54314 17.8928 9.52554 17.8787 9.50442C17.8435 9.45162 17.7942 9.40586 17.8048 9.33193C17.7731 9.21225 17.7097 9.11369 17.6112 9.03624C17.5091 8.9588 17.407 8.87784 17.3155 8.78631C17.2732 8.74407 17.2169 8.71239 17.1782 8.66311C17.1289 8.61031 17.1078 8.55399 17.1395 8.4871C17.15 8.46598 17.1465 8.44134 17.1359 8.42022C17.1183 8.39206 17.1043 8.3639 17.0831 8.33926C16.9705 8.21253 16.8508 8.09285 16.7276 7.97668C16.5974 7.85348 16.4742 7.72324 16.3474 7.60003C16.3122 7.56483 16.2876 7.52611 16.277 7.47683C16.263 7.41346 16.2454 7.3501 16.2137 7.29378C16.1855 7.24098 16.1503 7.18818 16.0905 7.16354C16.0588 7.14946 16.0271 7.13185 15.9989 7.11073C15.9602 7.10369 15.9321 7.08609 15.918 7.05089Z" fill="var(--fill-0, #A88B46)"/>
<path id="Vector_7" fill-rule="evenodd" clip-rule="evenodd" d="M20.0051 10.4055C19.9558 10.3774 19.9558 10.3774 19.9558 10.3246C20.0473 10.2753 20.1424 10.2225 20.2374 10.1767C20.2796 10.1556 20.3254 10.138 20.3641 10.1098C20.3958 10.0852 20.438 10.057 20.4944 10.0782C20.5049 10.1521 20.4979 10.2331 20.4979 10.3105C20.4979 10.3879 20.4979 10.4654 20.4979 10.5463C20.4979 10.6273 20.4979 10.7083 20.4979 10.7892C20.4979 10.8667 20.4979 10.9441 20.4979 11.0251C20.4979 11.1025 20.4979 11.18 20.4979 11.2539C20.5155 11.2785 20.5366 11.2926 20.5577 11.2821C20.6035 11.2645 20.6457 11.2715 20.6915 11.268C20.783 11.2645 20.8745 11.2645 20.9625 11.2504C21.0294 11.2398 21.0998 11.2504 21.1667 11.2539C21.209 11.2574 21.2512 11.2715 21.2934 11.268C21.3814 11.2609 21.4624 11.2891 21.5434 11.3032C21.6243 11.3173 21.7053 11.3525 21.7827 11.3841C21.9095 11.4369 22.0256 11.5038 22.1207 11.6024C22.1594 11.6411 22.1946 11.6904 22.2192 11.7432C22.2509 11.8065 22.2826 11.8699 22.3037 11.9368C22.3319 12.0178 22.3354 12.1022 22.3354 12.1867C22.3389 12.6619 22.3354 13.1372 22.3354 13.6124C22.3354 13.7215 22.3354 13.8341 22.3354 13.9433C22.3354 13.9679 22.3389 13.9961 22.3424 14.0207C22.346 14.063 22.3178 14.0946 22.2756 14.0982C22.258 14.0982 22.2439 14.0946 22.2263 14.0946C22.2051 14.0911 22.1805 14.0876 22.1594 14.0876C22.0819 14.0911 22.0045 14.0946 21.9271 14.0982C21.8531 14.1017 21.8355 14.0876 21.8355 14.0101C21.8355 13.7567 21.8355 13.5032 21.8355 13.2498C21.8355 13.0421 21.8355 12.8344 21.8355 12.6232C21.8355 12.5599 21.8391 12.5 21.8426 12.4367C21.8496 12.3205 21.8179 12.1269 21.7757 12.0283C21.7722 12.0213 21.7651 12.0107 21.7616 12.0037C21.6807 11.8946 21.575 11.8206 21.4448 11.7784C21.2019 11.7045 20.959 11.7009 20.7091 11.7361C20.6563 11.7432 20.607 11.7573 20.5648 11.7925C20.5401 11.8136 20.5225 11.8382 20.5225 11.877C20.5225 11.9051 20.5225 11.9368 20.5225 11.965C20.5225 12.6373 20.5225 13.3061 20.5225 13.9785C20.5225 14.0031 20.5225 14.0313 20.519 14.0559C20.5155 14.0876 20.4979 14.1052 20.4662 14.0982C20.3395 14.077 20.2128 14.0982 20.0896 14.0982C20.0755 14.0982 20.0649 14.0982 20.0508 14.0982C20.0262 14.0946 20.0086 14.077 20.0086 14.0524C20.0051 14.0313 20.0051 14.0066 20.0051 13.9855C20.0051 12.8309 20.0051 11.6798 20.0051 10.5252C20.0051 10.483 20.0051 10.4443 20.0051 10.4055Z" fill="var(--fill-0, #A88B46)"/>
<path id="Vector_8" fill-rule="evenodd" clip-rule="evenodd" d="M8.82161 12.113C8.79345 12.1059 8.77585 12.1059 8.76881 12.0989C8.74769 12.0777 8.72305 12.0566 8.71249 12.032C8.66321 11.9158 8.60336 11.8032 8.60336 11.6729C8.60336 11.6553 8.60688 11.6377 8.59632 11.6237C8.56464 11.5709 8.57872 11.5145 8.5752 11.4617C8.57168 11.4019 8.59984 11.3561 8.64209 11.3174C8.66321 11.2998 8.68433 11.2892 8.71249 11.2892C8.80401 11.2892 8.89553 11.2892 8.98706 11.2892C9.49044 11.2892 9.99733 11.2892 10.5007 11.2892C10.5289 11.2892 10.5606 11.2857 10.5887 11.2857C10.645 11.2822 10.6908 11.3174 10.7014 11.3702C10.7049 11.3948 10.7049 11.423 10.7049 11.4476C10.7049 12.1728 10.7049 12.9015 10.7049 13.6266C10.7049 13.704 10.719 13.778 10.7471 13.8519C10.7506 13.8625 10.7577 13.8695 10.7612 13.8765C10.7823 13.954 10.7577 14.0068 10.6838 14.0455C10.6486 14.0631 10.6134 14.0701 10.5711 14.0737C10.4162 14.0877 10.2578 14.0737 10.1029 14.0701C10.0079 14.0701 9.91637 14.0631 9.82133 14.0913C9.78965 14.1018 9.75797 14.0948 9.72276 14.0983C9.63476 14.0983 9.54676 14.1018 9.46227 14.1194C9.37779 14.1335 9.28627 14.1335 9.20179 14.1089C9.17362 14.1018 9.14194 14.0948 9.11378 14.0983C9.0117 14.1089 8.92018 14.0701 8.82865 14.0455C8.70897 14.0103 8.60336 13.9505 8.50832 13.866C8.45904 13.8202 8.40976 13.7744 8.37456 13.7146C8.33936 13.6583 8.32175 13.5949 8.31471 13.5316C8.31119 13.4752 8.33231 13.4189 8.3464 13.3626C8.364 13.2887 8.39216 13.2218 8.45552 13.1725C8.48016 13.1127 8.52592 13.0739 8.57168 13.0317C8.64913 12.9648 8.72657 12.8979 8.81105 12.8346C8.88497 12.7783 8.96242 12.7219 9.03986 12.6691C9.12082 12.6128 9.20531 12.5565 9.28979 12.5037C9.31443 12.4861 9.33907 12.472 9.36371 12.4544C9.41651 12.4157 9.47283 12.384 9.52916 12.3558C9.56788 12.3382 9.6066 12.3101 9.6418 12.2854C9.75445 12.2115 9.87765 12.1517 9.99381 12.0813C10.0607 12.0425 10.1276 12.0003 10.1874 11.9545C10.2613 11.8982 10.2578 11.7961 10.1945 11.7433C10.1769 11.7293 10.1487 11.7117 10.1241 11.7152C10.0149 11.7222 9.90581 11.7046 9.79317 11.7081C9.68756 11.7117 9.57844 11.7081 9.46932 11.7081C9.36019 11.7081 9.24755 11.7081 9.13842 11.7081C9.07858 11.7081 9.02226 11.7081 8.96242 11.7081C8.88497 11.7117 8.83921 11.7469 8.81809 11.8243C8.80753 11.8595 8.79345 11.8947 8.79697 11.9369C8.80049 11.9651 8.79697 11.9933 8.81105 12.0214C8.82161 12.0461 8.81809 12.0742 8.82161 12.113ZM10.2649 13.0563C10.2649 12.8979 10.2649 12.736 10.2613 12.5776C10.2613 12.5565 10.2649 12.5283 10.2543 12.5107C10.2367 12.479 10.2437 12.4368 10.205 12.4192C10.1733 12.4051 10.1522 12.4403 10.1241 12.4403C10.11 12.4403 10.0924 12.4474 10.0783 12.4544C10.0114 12.4896 9.94805 12.5248 9.88469 12.5635C9.76149 12.641 9.63124 12.7079 9.51508 12.7959C9.43411 12.8557 9.34963 12.912 9.26867 12.9683C9.21235 13.0071 9.1701 13.0634 9.10674 13.0915C9.03282 13.1795 8.93426 13.2429 8.86033 13.338C8.83569 13.3732 8.81457 13.4084 8.79697 13.4436C8.78641 13.4647 8.78993 13.4964 8.79697 13.5175C8.82161 13.6055 8.88849 13.6653 8.97298 13.6864C9.0645 13.7111 9.1525 13.7709 9.25459 13.7498C9.26163 13.7498 9.26867 13.7498 9.27219 13.7533C9.32499 13.7815 9.38131 13.7745 9.43411 13.7745C9.52212 13.7745 9.61012 13.7709 9.69812 13.7745C9.80021 13.7815 9.89525 13.7357 9.99733 13.7428C10.0079 13.7428 10.0149 13.7357 10.0255 13.7322C10.0677 13.7146 10.11 13.7005 10.1522 13.6829C10.2261 13.6512 10.2684 13.602 10.2649 13.5104C10.2613 13.3626 10.2649 13.2077 10.2649 13.0563Z" fill="var(--fill-0, #A88B46)"/>
<path id="Vector_9" fill-rule="evenodd" clip-rule="evenodd" d="M14.876 10.909C14.8549 10.9442 14.8338 10.9477 14.8056 10.9301C14.7915 10.9231 14.781 10.909 14.7704 10.8984C14.707 10.828 14.6437 10.7612 14.5803 10.6908C14.5662 10.6767 14.5557 10.6591 14.531 10.6696C14.5134 10.6767 14.5064 10.7119 14.5275 10.7295C14.5627 10.7717 14.5803 10.8245 14.6261 10.8597C14.6507 10.8773 14.6472 10.8808 14.6542 10.9301C14.6401 10.9336 14.6225 10.9372 14.6085 10.9372C14.3198 10.9372 14.0312 10.9372 13.739 10.9372C13.7073 10.9372 13.6721 10.9372 13.6404 10.9407C13.6017 10.9442 13.57 10.9231 13.5489 10.8949C13.5207 10.8597 13.5031 10.8175 13.475 10.7823C13.4363 10.74 13.4327 10.6978 13.4574 10.6485C13.4891 10.5887 13.5172 10.5253 13.5559 10.469C13.5876 10.4232 13.6017 10.3739 13.6158 10.3282C13.6334 10.2613 13.6017 10.2015 13.563 10.1487C13.5383 10.1135 13.5278 10.0782 13.5348 10.0395C13.5383 10.0219 13.5419 10.0008 13.5524 9.98321C13.5806 9.93744 13.6052 9.88464 13.644 9.84592C13.7108 9.78256 13.746 9.7016 13.7883 9.62767C13.8481 9.52207 13.9044 9.40943 13.9608 9.3003C14.0241 9.1771 14.0875 9.05389 14.1473 8.92717C14.1861 8.84621 14.2318 8.76876 14.2705 8.6878C14.3093 8.61036 14.348 8.53291 14.3867 8.45195C14.443 8.33579 14.4958 8.21962 14.5557 8.10346C14.5979 8.02602 14.6296 7.94505 14.6753 7.87113C14.7211 7.79369 14.7563 7.70921 14.795 7.62824C14.8443 7.5332 14.8866 7.43464 14.9429 7.34663C14.9499 7.33255 14.9534 7.31495 14.964 7.30439C14.9922 7.25511 15.0274 7.21991 15.0802 7.19175C15.147 7.16007 15.2139 7.14598 15.2843 7.1319C15.3618 7.11782 15.4392 7.08966 15.5237 7.08966C15.5378 7.08966 15.5483 7.08966 15.5624 7.08966C15.5976 7.08966 15.6187 7.10374 15.6293 7.13542C15.6328 7.14599 15.6363 7.16007 15.6434 7.17063C15.6575 7.20231 15.6821 7.22343 15.7173 7.23047C15.837 7.24807 15.8968 7.32551 15.9285 7.43111C15.9426 7.47336 15.9532 7.51912 15.9567 7.56488C15.9602 7.60712 15.9461 7.64584 15.9144 7.67752C15.8792 7.71273 15.837 7.74441 15.7947 7.77609C15.6328 7.90633 15.4955 8.06122 15.3688 8.22666C15.2843 8.33227 15.2034 8.44139 15.1224 8.55052C15.0696 8.62444 15.0062 8.6878 14.957 8.76524C14.9112 8.83916 14.8549 8.90605 14.8021 8.97645C14.781 9.00461 14.7634 9.03629 14.7422 9.06445C14.6753 9.17358 14.6155 9.29326 14.5381 9.39183C14.4677 9.48335 14.4325 9.59247 14.3656 9.684C14.348 9.70864 14.3409 9.74384 14.3339 9.77552C14.3269 9.82128 14.3057 9.86 14.2881 9.90224C14.2635 9.95153 14.2635 10.0149 14.2811 10.0642C14.3057 10.1416 14.3409 10.212 14.3902 10.2789C14.3937 10.2824 14.3973 10.2824 14.3973 10.2859C14.4853 10.4479 14.6225 10.5711 14.7211 10.7224C14.7669 10.7893 14.8267 10.8421 14.876 10.909Z" fill="var(--fill-0, #A88B46)"/>
<path id="Vector_10" fill-rule="evenodd" clip-rule="evenodd" d="M15.45 1.58072C15.4183 1.57016 15.3972 1.55256 15.3972 1.52088C15.3937 1.4892 15.3901 1.45752 15.3901 1.42231C15.3901 1.32023 15.3901 1.22167 15.3972 1.11958C15.4042 1.05622 15.4183 0.989339 15.4394 0.929497C15.4922 0.774611 15.5662 0.644367 15.6999 0.531723C15.8196 0.429639 15.9393 0.324035 16.0836 0.257153C16.1927 0.207871 16.3019 0.158589 16.418 0.133948C16.4673 0.123388 16.5166 0.105787 16.5694 0.095227C16.7454 0.0600257 16.9214 0.0741062 17.0939 0.0811465C17.1537 0.0846666 17.21 0.0917069 17.2664 0.109307C17.3121 0.123388 17.3579 0.148029 17.3966 0.17267C17.4741 0.225472 17.5585 0.267713 17.6465 0.299394C17.6853 0.313475 17.724 0.334596 17.7627 0.352196C17.7979 0.366277 17.8331 0.383877 17.8754 0.376837C17.9317 0.366277 17.9669 0.401478 17.988 0.44724C18.0126 0.507082 18.0443 0.563404 18.0408 0.633806C18.076 0.73941 18.0654 0.845014 18.0654 0.954138C18.069 1.05622 18.0338 1.14422 17.9845 1.22871C17.9634 1.26391 17.9317 1.28503 17.8965 1.30263C17.8824 1.30967 17.8648 1.30967 17.8507 1.30615C17.8296 1.30615 17.8155 1.28151 17.8226 1.26391C17.8261 1.25335 17.8331 1.24631 17.8366 1.23927C17.8648 1.20407 17.8683 1.16535 17.8683 1.11958C17.8648 1.0351 17.8683 0.950617 17.8683 0.866134C17.8683 0.841494 17.8613 0.813333 17.8542 0.792212C17.8507 0.781651 17.8331 0.771091 17.8226 0.774611C17.812 0.774611 17.7979 0.788692 17.7979 0.799252C17.7873 0.845014 17.7803 0.894295 17.7662 0.940057C17.7381 1.02454 17.7205 1.11254 17.6817 1.19703C17.6571 1.24631 17.6219 1.28855 17.5761 1.30967C17.5093 1.34135 17.4389 1.36599 17.3649 1.36951C17.2171 1.37655 17.0657 1.38359 16.9179 1.38359C16.8651 1.38359 16.8158 1.37655 16.763 1.37655C16.7313 1.37655 16.6961 1.37303 16.6644 1.37655C16.5307 1.39415 16.3969 1.38711 16.2667 1.39415C16.154 1.40119 16.0414 1.41879 15.9287 1.44344C15.8055 1.4716 15.6858 1.51384 15.5626 1.53848C15.5239 1.542 15.4887 1.56664 15.45 1.58072Z" fill="var(--fill-0, #A88B46)"/>
<path id="Vector_11" fill-rule="evenodd" clip-rule="evenodd" d="M17.6639 2.59083C17.5935 2.53803 17.5935 2.53803 17.5302 2.54859C17.5231 2.56619 17.5126 2.58027 17.509 2.60139C17.4914 2.65067 17.5055 2.69643 17.5513 2.72811C17.6111 2.77387 17.6745 2.80908 17.7555 2.80908C17.7977 2.80908 17.8153 2.8302 17.8188 2.86892C17.8259 2.94636 17.8294 3.0238 17.8329 3.10125C17.8329 3.12237 17.8259 3.14349 17.8259 3.16813C17.8259 3.18221 17.8223 3.20333 17.8329 3.21389C17.8575 3.25261 17.854 3.28781 17.8329 3.32301C17.8294 3.33005 17.8259 3.34061 17.8223 3.35469C17.8575 3.40046 17.8575 3.45326 17.8399 3.50958C17.8364 3.52014 17.8329 3.53774 17.8364 3.5483C17.8575 3.6011 17.854 3.65743 17.8505 3.71375C17.8505 3.72783 17.8505 3.73839 17.854 3.75247C17.854 3.76303 17.8575 3.77007 17.8611 3.78063C17.8646 3.79119 17.8716 3.80175 17.8681 3.80879C17.8329 3.88975 17.8822 3.97072 17.8646 4.04816C17.8611 4.06224 17.8575 4.07984 17.8575 4.09744C17.8787 4.23825 17.8681 4.38257 17.8787 4.52338C17.8857 4.60786 17.8787 4.69234 17.8822 4.77683C17.8822 4.80147 17.8857 4.82963 17.8857 4.85427C17.8857 4.87539 17.8857 4.90003 17.8857 4.92115C17.8857 4.94931 17.8857 4.97747 17.8892 5.00915C17.8892 5.02323 17.8963 5.03379 17.8963 5.04787C17.8998 5.11124 17.9033 5.17812 17.8998 5.24148C17.8927 5.39637 17.9068 5.55125 17.8927 5.70966C17.8892 5.76598 17.8927 5.82582 17.8822 5.88566C17.8716 5.95255 17.8505 6.01943 17.8329 6.08279C17.8223 6.12855 17.7942 6.16375 17.759 6.19544C17.7062 6.24824 17.6252 6.25176 17.5654 6.206C17.4844 6.14263 17.4422 6.05815 17.4175 5.95959C17.3894 5.84694 17.3718 5.73078 17.3577 5.61461C17.3471 5.51605 17.3295 5.41397 17.3014 5.31892C17.2802 5.23444 17.245 5.15348 17.2098 5.07252C17.1922 5.03379 17.1852 4.99155 17.1676 4.95635C17.1324 4.88243 17.1113 4.80499 17.0761 4.73106C17.0655 4.70642 17.055 4.6853 17.055 4.65714C17.0585 4.48113 17.062 4.30513 17.062 4.12912C17.062 4.02704 17.0796 3.92143 17.0726 3.81935C17.0726 3.80527 17.0796 3.78767 17.0796 3.77007C17.0796 3.73839 17.0796 3.70671 17.0761 3.67503C17.0726 3.63982 17.0655 3.60462 17.0585 3.56942C17.0444 3.50606 17.0374 3.4427 16.9986 3.3899C16.974 3.35821 16.9669 3.31245 16.9458 3.27725C16.9247 3.24205 16.9177 3.20685 16.9177 3.16461C16.9177 3.15405 16.9177 3.14349 16.9141 3.13645C16.8789 3.08717 16.893 3.03084 16.8965 2.97452C16.9001 2.88652 16.9071 2.79851 16.9282 2.71403C16.9353 2.68939 16.9177 2.65771 16.9282 2.64011C16.9775 2.56971 16.9141 2.50986 16.9141 2.44298C16.886 2.41834 16.8649 2.39018 16.8332 2.3761C16.798 2.3585 16.7593 2.35498 16.7205 2.35146C16.6677 2.34442 16.6185 2.34442 16.5657 2.33738C16.4882 2.32682 16.453 2.28106 16.4671 2.20361C16.4882 2.10153 16.4777 1.99593 16.4847 1.89032C16.4882 1.83752 16.4636 1.79528 16.4354 1.75656C16.4143 1.73192 16.3967 1.70376 16.3756 1.67559C16.4424 1.59815 16.5234 1.55591 16.629 1.54887C16.8789 1.53479 17.1289 1.51719 17.3788 1.49255C17.4703 1.48199 17.5654 1.47847 17.6569 1.45383C17.6991 1.44327 17.7484 1.44327 17.7942 1.44327C17.8012 1.44327 17.8083 1.45383 17.8188 1.46087C17.7871 1.51015 17.7343 1.52071 17.6851 1.53127C17.5689 1.55943 17.4527 1.58407 17.3366 1.61223C17.3225 1.61575 17.3049 1.61927 17.2908 1.62631C17.238 1.65095 17.1852 1.67559 17.1324 1.70024C17.0198 1.746 16.9282 1.82344 16.8402 1.9044C16.8121 1.92904 16.7945 1.96777 16.7733 1.99945C16.7522 2.03113 16.7628 2.05929 16.798 2.08041C16.8297 2.09801 16.8578 2.11913 16.893 2.12969C17.0198 2.16489 17.1148 2.24938 17.2098 2.33386C17.2767 2.3937 17.3506 2.42538 17.4351 2.43594C17.4879 2.44298 17.5442 2.45002 17.5971 2.4641C17.6358 2.47818 17.671 2.50634 17.7027 2.52747C17.7097 2.53099 17.7097 2.55211 17.7062 2.56267C17.6956 2.56971 17.6815 2.57675 17.6639 2.59083ZM17.4422 5.18164C17.4422 5.16756 17.4422 5.16404 17.4422 5.16052C17.4386 5.12532 17.414 5.10068 17.3788 5.10068C17.3506 5.10068 17.333 5.1218 17.3295 5.14996C17.3295 5.19572 17.3542 5.23444 17.3894 5.23444C17.4105 5.23444 17.4281 5.22388 17.4351 5.20628C17.4422 5.19572 17.4422 5.18516 17.4422 5.18164ZM17.4386 2.82316C17.4034 2.80908 17.3682 2.79147 17.3401 2.82668C17.326 2.84428 17.3295 2.89708 17.3436 2.90764C17.3718 2.93228 17.4034 2.92172 17.4386 2.90412C17.4386 2.87948 17.4386 2.85132 17.4386 2.82316ZM17.4422 4.0024C17.4422 3.97072 17.4316 3.95664 17.407 3.95312C17.3753 3.94608 17.3506 3.95312 17.3401 3.97776C17.326 4.00944 17.3225 4.04112 17.3506 4.06576C17.3612 4.07632 17.3788 4.08688 17.3894 4.08688C17.4175 4.08336 17.4386 4.05168 17.4422 4.01648C17.4422 4.00944 17.4422 4.00592 17.4422 4.0024ZM17.3929 2.58731C17.3119 2.69643 17.3119 2.70699 17.3964 2.75275C17.4562 2.70347 17.4562 2.70347 17.4281 2.64363C17.414 2.62603 17.407 2.61195 17.3929 2.58731ZM17.4386 3.10125C17.4386 3.07308 17.4422 3.05548 17.4386 3.03788C17.4281 3.00268 17.3788 2.9886 17.3506 3.0062C17.333 3.02028 17.326 3.059 17.3366 3.08717C17.3436 3.10829 17.3753 3.12589 17.3999 3.11885C17.4105 3.11885 17.421 3.11181 17.4386 3.10125ZM17.3753 3.32653C17.4492 3.28429 17.4527 3.28077 17.4316 3.19629C17.3999 3.18925 17.3682 3.17869 17.3471 3.21741C17.3225 3.25613 17.3366 3.29133 17.3753 3.32653ZM17.7942 5.53365C17.7942 5.53013 17.7907 5.51605 17.7871 5.50549C17.7801 5.48789 17.7484 5.47381 17.7273 5.48437C17.6921 5.50197 17.671 5.55125 17.6921 5.58293C17.7027 5.60405 17.7203 5.61814 17.7449 5.61814C17.7695 5.61462 17.7907 5.59349 17.7942 5.56533C17.7977 5.55477 17.7942 5.55125 17.7942 5.53365ZM17.7027 3.96016C17.6745 4.04464 17.6815 4.0552 17.7625 4.08336C17.8012 4.0552 17.8047 4.02 17.7871 3.98128C17.7695 3.94256 17.7343 3.9496 17.7027 3.96016ZM17.3858 5.04435C17.4351 5.02675 17.4457 4.99155 17.4386 4.94931C17.4316 4.92467 17.4105 4.91059 17.3788 4.91059C17.3542 4.91059 17.3366 4.92467 17.333 4.94931C17.3295 4.96691 17.3295 4.99155 17.3366 5.00563C17.3506 5.02323 17.3718 5.03379 17.3858 5.04435ZM17.7343 4.32625C17.7097 4.33681 17.6921 4.35441 17.6886 4.38609C17.6851 4.41425 17.6991 4.43537 17.7132 4.45649C17.7273 4.47409 17.7449 4.47409 17.766 4.46353C17.7977 4.44241 17.7977 4.41073 17.7942 4.37905C17.7907 4.34033 17.7625 4.33329 17.7343 4.32625ZM17.7308 3.51662C17.759 3.5131 17.7731 3.49198 17.7871 3.46734C17.7977 3.44622 17.7977 3.4251 17.7801 3.4075C17.7625 3.3899 17.7449 3.37934 17.7203 3.3899C17.6991 3.40046 17.6851 3.41454 17.6851 3.4427C17.6815 3.4779 17.7027 3.49902 17.7308 3.51662ZM17.6217 5.94551C17.6217 5.90327 17.5971 5.87158 17.5654 5.86806C17.5337 5.86806 17.509 5.89622 17.509 5.93143C17.509 5.96663 17.5442 6.00183 17.5759 5.99831C17.6006 5.99479 17.6217 5.97015 17.6217 5.94551ZM17.7907 5.39285C17.7907 5.36117 17.7907 5.333 17.7907 5.30132C17.7273 5.29076 17.7062 5.29428 17.6921 5.31892C17.678 5.34709 17.6851 5.37877 17.7132 5.40341C17.7449 5.43157 17.766 5.40693 17.7907 5.39285ZM17.7942 4.91763C17.7449 4.90355 17.7097 4.91059 17.6921 4.94579C17.6745 4.98099 17.6991 5.00563 17.7203 5.03027C17.7308 5.04435 17.7555 5.04787 17.7695 5.03027C17.7801 5.01971 17.7907 5.00563 17.7942 4.99155C17.7977 4.97043 17.7942 4.94579 17.7942 4.91763ZM17.7977 4.77683C17.7942 4.76627 17.7942 4.75218 17.7871 4.7381C17.7801 4.72402 17.7519 4.71346 17.7379 4.71698C17.7132 4.72754 17.6851 4.76627 17.6886 4.79443C17.6921 4.81907 17.7203 4.85075 17.7449 4.85427C17.766 4.85427 17.7907 4.83315 17.7977 4.80499C17.7942 4.79795 17.7942 4.79091 17.7977 4.77683ZM17.4422 4.39665C17.4422 4.36145 17.4281 4.34033 17.3964 4.33329C17.3647 4.32977 17.333 4.36497 17.333 4.40017C17.333 4.42833 17.3612 4.46001 17.3858 4.46001C17.414 4.46353 17.4386 4.43185 17.4422 4.39665ZM17.3823 3.70319C17.4281 3.69263 17.4457 3.66799 17.4422 3.62574C17.4386 3.59406 17.4175 3.57998 17.3929 3.57294C17.3788 3.56942 17.3612 3.57646 17.3506 3.58702C17.3295 3.60462 17.326 3.63278 17.3401 3.65743C17.3506 3.67151 17.3682 3.68911 17.3823 3.70319ZM17.0831 2.90764C17.0937 2.86892 17.0902 2.84428 17.0655 2.81964C17.0479 2.80204 17.0233 2.80204 17.0057 2.81964C16.974 2.85132 16.974 2.87948 17.0057 2.9182C17.0127 2.92524 17.0233 2.92876 17.0303 2.93228C17.0444 2.92876 17.062 2.9182 17.0831 2.90764ZM17.7942 3.63278C17.7942 3.60462 17.7695 3.57294 17.7449 3.56942C17.7203 3.5659 17.6851 3.6011 17.6851 3.62926C17.6851 3.66095 17.7132 3.69615 17.7414 3.69967C17.766 3.70319 17.7942 3.66799 17.7942 3.63278ZM17.0866 3.05196C17.0866 3.04492 17.0866 3.03788 17.0866 3.03084C17.0831 2.99916 17.0479 2.98508 17.0198 3.00268C17.0127 3.0062 17.0057 3.01324 16.9986 3.02028C16.9775 3.0414 16.9705 3.07308 16.9845 3.09069C16.9986 3.11181 17.0233 3.11533 17.0444 3.11533C17.0655 3.11181 17.0831 3.10477 17.0831 3.08012C17.0866 3.07308 17.0866 3.06252 17.0866 3.05196ZM17.3823 3.38638C17.3542 3.3899 17.3295 3.42158 17.3295 3.45678C17.3295 3.48494 17.3682 3.51662 17.3964 3.5131C17.4246 3.50958 17.4457 3.47438 17.4422 3.43918C17.4386 3.4075 17.4105 3.38286 17.3823 3.38638ZM17.7942 5.94199C17.7942 5.92791 17.7942 5.92439 17.7942 5.92087C17.7942 5.89623 17.7766 5.87862 17.7555 5.86806C17.7343 5.8575 17.7167 5.86806 17.7027 5.88214C17.6851 5.89975 17.6815 5.92087 17.6921 5.94551C17.6991 5.95959 17.7097 5.97367 17.7167 5.98775C17.7343 6.00887 17.7731 6.00183 17.7836 5.97719C17.7942 5.96663 17.7942 5.94903 17.7942 5.94199ZM17.7907 5.77302C17.8012 5.74134 17.8012 5.71318 17.7907 5.6815C17.759 5.67094 17.7273 5.66742 17.6991 5.68502C17.6815 5.72022 17.6815 5.7519 17.7097 5.77654C17.7308 5.79414 17.759 5.79414 17.7907 5.77302ZM17.5935 5.67446C17.5795 5.67446 17.5654 5.67094 17.5548 5.67446C17.5161 5.68502 17.4985 5.72022 17.5196 5.7519C17.5302 5.76598 17.5442 5.78006 17.5583 5.79062C17.5759 5.8047 17.5971 5.79766 17.6076 5.77654C17.6182 5.74486 17.6252 5.71318 17.5935 5.67446ZM17.5337 5.48437C17.5126 5.51957 17.5126 5.54773 17.5196 5.57941C17.5266 5.60405 17.5478 5.61462 17.5724 5.61109C17.5971 5.60405 17.6217 5.56533 17.6217 5.53717C17.6217 5.51605 17.6006 5.48789 17.5759 5.48085C17.5618 5.48085 17.5478 5.48437 17.5337 5.48437ZM17.7907 5.10772C17.7731 5.1042 17.766 5.10068 17.7555 5.10068C17.6921 5.10772 17.6745 5.14644 17.7062 5.19924C17.7132 5.21332 17.7238 5.22388 17.7343 5.23444C17.8047 5.21684 17.8012 5.16756 17.7907 5.10772ZM17.5302 3.95312C17.5126 4.0024 17.502 4.0376 17.5372 4.06928C17.5442 4.07632 17.5618 4.08336 17.5724 4.07984C17.6006 4.06928 17.6252 4.04816 17.6252 4.01648C17.6252 3.99888 17.6111 3.97072 17.5971 3.96016C17.583 3.9496 17.5548 3.95664 17.5302 3.95312ZM17.5337 4.91059C17.5055 4.95283 17.509 4.98803 17.5302 5.02323C17.5372 5.03379 17.5583 5.04435 17.5689 5.04083C17.5971 5.03731 17.6252 4.98451 17.6182 4.95635C17.6147 4.94227 17.6041 4.92115 17.5935 4.91763C17.5759 4.91059 17.5548 4.91411 17.5337 4.91059ZM17.4422 4.5973C17.4422 4.5445 17.4175 4.51986 17.3858 4.53042C17.3577 4.53746 17.3401 4.55506 17.333 4.58322C17.326 4.60786 17.3401 4.6325 17.3647 4.64658C17.3858 4.66066 17.407 4.65714 17.4246 4.63602C17.4351 4.62194 17.4386 4.60434 17.4422 4.5973ZM17.4422 4.78387C17.4422 4.77683 17.4422 4.76979 17.4386 4.76626C17.4316 4.7381 17.4105 4.7205 17.3858 4.7205C17.3612 4.7205 17.3366 4.74514 17.3366 4.76978C17.3366 4.79091 17.3471 4.81203 17.3577 4.83315C17.3682 4.85779 17.3929 4.85779 17.414 4.84371C17.4351 4.82611 17.4457 4.80851 17.4422 4.78387ZM17.5302 3.19629C17.5161 3.23501 17.5126 3.26669 17.5266 3.29133C17.5337 3.30541 17.5513 3.31245 17.5654 3.31949C17.583 3.32653 17.5935 3.31245 17.6041 3.29837C17.6287 3.26317 17.6252 3.23149 17.5971 3.19629C17.5759 3.19629 17.5548 3.19629 17.5302 3.19629ZM17.4386 3.86159C17.4386 3.84399 17.4422 3.82639 17.4386 3.80879C17.4316 3.78063 17.4105 3.76303 17.3823 3.76303C17.3542 3.76303 17.333 3.78063 17.3295 3.80879C17.326 3.82639 17.3295 3.84751 17.3295 3.86159C17.3823 3.87919 17.3823 3.87919 17.4386 3.86159ZM17.7942 3.80175C17.7871 3.79471 17.7801 3.77711 17.7625 3.76655C17.7449 3.75599 17.7238 3.75951 17.7097 3.78063C17.6991 3.79471 17.6921 3.80879 17.6851 3.82287C17.678 3.84047 17.678 3.86159 17.6991 3.87567C17.7203 3.89327 17.7414 3.89327 17.7625 3.87919C17.7907 3.86159 17.7977 3.83695 17.7942 3.80175ZM17.5337 4.71346C17.5161 4.76979 17.5126 4.80851 17.5372 4.84723C17.5583 4.84723 17.5759 4.84723 17.59 4.84723C17.6147 4.80499 17.6323 4.76626 17.6006 4.73106C17.5865 4.7205 17.5618 4.7205 17.5337 4.71346ZM17.5654 5.29076C17.5337 5.29076 17.509 5.32244 17.509 5.35765C17.509 5.38229 17.5337 5.40693 17.5618 5.40693C17.5971 5.40693 17.6287 5.37877 17.6287 5.35061C17.6287 5.32244 17.5935 5.29076 17.5654 5.29076ZM17.7907 4.15728C17.7766 4.15376 17.7731 4.15024 17.7695 4.15024C17.7449 4.14672 17.7167 4.13968 17.7027 4.16784C17.6921 4.18896 17.678 4.21713 17.6956 4.23825C17.7167 4.26641 17.7449 4.26289 17.7731 4.25233C17.7801 4.24881 17.7836 4.24529 17.7907 4.24177C17.7907 4.21361 17.7907 4.18544 17.7907 4.15728ZM17.6217 3.63278C17.6217 3.6011 17.5935 3.57646 17.5654 3.57294C17.5372 3.57294 17.5126 3.59054 17.5126 3.6187C17.509 3.65743 17.5372 3.69615 17.5654 3.69967C17.5724 3.69967 17.5795 3.69967 17.583 3.69615C17.6076 3.67855 17.6182 3.65391 17.6217 3.63278ZM17.0057 2.61899C17.0021 2.66123 16.9986 2.68939 17.0022 2.71403C17.0022 2.72459 17.0268 2.74219 17.0338 2.74219C17.055 2.73515 17.069 2.72107 17.0831 2.71403C17.0831 2.68235 17.0831 2.65771 17.0831 2.62603C17.0585 2.62603 17.0374 2.62251 17.0057 2.61899ZM17.6921 4.62898C17.7167 4.6325 17.7379 4.63954 17.759 4.64306C17.7801 4.64306 17.7942 4.62898 17.7977 4.60786C17.7977 4.5973 17.7977 4.58674 17.7977 4.5797C17.7942 4.54802 17.7801 4.53394 17.7484 4.53042C17.7167 4.5269 17.6991 4.54098 17.6921 4.57266C17.6886 4.58674 17.6921 4.60786 17.6921 4.62898ZM17.6358 3.45678C17.6182 3.4251 17.6041 3.40398 17.5935 3.38286C17.5689 3.38638 17.5513 3.38638 17.5337 3.38638C17.5231 3.41806 17.4985 3.43918 17.5196 3.47086C17.5337 3.48846 17.5513 3.49902 17.5724 3.51662C17.5935 3.4955 17.6111 3.4779 17.6358 3.45678ZM17.4386 4.1432C17.407 4.14672 17.3823 4.14672 17.3612 4.15376C17.3401 4.1608 17.326 4.18544 17.3295 4.21009C17.333 4.23121 17.3471 4.24529 17.3682 4.24881C17.3894 4.25233 17.4105 4.24881 17.4351 4.24881C17.4386 4.23121 17.4422 4.21713 17.4422 4.20657C17.4422 4.18896 17.4386 4.17488 17.4386 4.1432ZM17.7379 3.32653C17.7519 3.30893 17.7695 3.29837 17.7801 3.27725C17.8012 3.24205 17.7836 3.20333 17.7414 3.18573C17.7238 3.17869 17.6921 3.19277 17.6921 3.21389C17.6886 3.25613 17.6921 3.29485 17.7379 3.32653ZM17.0866 2.52043C17.0831 2.49226 17.0831 2.47114 17.0796 2.4465C17.0761 2.42538 17.0479 2.40074 17.0338 2.40778C17.0233 2.41482 17.0092 2.4289 17.0057 2.43946C16.9951 2.47466 16.9951 2.50986 17.0162 2.54155C17.0198 2.54859 17.0303 2.55211 17.0409 2.55915C17.055 2.54859 17.069 2.53803 17.0866 2.52043ZM17.7625 3.11885C17.7871 3.04492 17.7801 3.02028 17.7343 2.98508C17.6851 3.03084 17.678 3.04492 17.6851 3.0766C17.6991 3.11181 17.7273 3.11533 17.7625 3.11885ZM17.5161 5.16404C17.5161 5.17108 17.5161 5.18868 17.5231 5.20276C17.5302 5.21684 17.5407 5.2274 17.5548 5.23092C17.5654 5.23444 17.583 5.2274 17.5865 5.22036C17.6006 5.19924 17.6111 5.1746 17.6147 5.14996C17.6182 5.1394 17.6041 5.11828 17.5935 5.11124C17.5618 5.0866 17.5161 5.11124 17.5161 5.16404ZM17.1676 4.53746C17.1676 4.56562 17.1641 4.59026 17.1676 4.6149C17.1711 4.62898 17.1852 4.64306 17.1993 4.64658C17.2134 4.6501 17.2345 4.64306 17.2415 4.63602C17.2662 4.60786 17.2626 4.57618 17.2486 4.54802C17.2345 4.51986 17.2063 4.5269 17.1676 4.53746ZM17.5161 4.5797C17.5161 4.62194 17.5337 4.64658 17.5689 4.64658C17.5971 4.64658 17.6252 4.61842 17.6252 4.59026C17.6252 4.55858 17.5935 4.53042 17.5618 4.53042C17.5337 4.53042 17.5161 4.54802 17.5161 4.5797ZM17.1711 3.19629C17.1711 3.23149 17.1711 3.25261 17.1711 3.27373C17.1711 3.29485 17.1852 3.30893 17.2063 3.31597C17.2239 3.32301 17.2486 3.30541 17.2591 3.28077C17.2732 3.24557 17.2662 3.21741 17.238 3.19277C17.2169 3.19277 17.1993 3.19277 17.1711 3.19629ZM17.5372 3.0062C17.5196 3.02732 17.5161 3.05196 17.5196 3.0766C17.5231 3.09421 17.5302 3.10829 17.5513 3.10829C17.5724 3.11181 17.5971 3.11181 17.6111 3.09069C17.6252 3.06956 17.6217 3.04844 17.6111 3.02732C17.5935 2.99564 17.5689 2.99564 17.5372 3.0062ZM17.0162 3.18221C16.9986 3.22445 16.9951 3.26669 17.0268 3.30893C17.0374 3.32301 17.0514 3.33357 17.0655 3.32301C17.0761 3.31597 17.0831 3.30541 17.0831 3.29485C17.0972 3.21389 17.0866 3.20333 17.0162 3.18221ZM17.6287 4.20304C17.6182 4.18544 17.6076 4.16784 17.5971 4.14672C17.5724 4.14672 17.5513 4.15024 17.5302 4.15024C17.5231 4.16432 17.5196 4.17136 17.5196 4.18192C17.5161 4.21008 17.5161 4.24177 17.5478 4.25585C17.583 4.27345 17.6006 4.24529 17.6217 4.22417C17.6217 4.22065 17.6217 4.21361 17.6287 4.20304ZM17.5196 3.86863C17.5442 3.87215 17.5618 3.87215 17.5759 3.87215C17.5971 3.87215 17.6111 3.85807 17.6182 3.83695C17.6287 3.81231 17.6147 3.79471 17.6006 3.77359C17.5865 3.75599 17.5654 3.75599 17.5478 3.76303C17.5231 3.77007 17.5196 3.78767 17.5196 3.80879C17.5196 3.82639 17.5196 3.84399 17.5196 3.86863ZM17.5971 2.80204C17.5689 2.8126 17.5478 2.8126 17.5372 2.82316C17.5161 2.84428 17.5196 2.87596 17.5266 2.90412C17.5302 2.91116 17.5407 2.9182 17.5478 2.92172C17.583 2.9358 17.6147 2.91468 17.6147 2.87948C17.6111 2.85484 17.6041 2.83372 17.5971 2.80204ZM17.5196 4.38609C17.5196 4.43537 17.5372 4.46353 17.5654 4.46353C17.59 4.46353 17.6147 4.42833 17.6111 4.38961C17.6111 4.37905 17.6076 4.36145 17.5971 4.35441C17.5865 4.34385 17.5689 4.34033 17.5548 4.33681C17.5442 4.33681 17.5302 4.34385 17.5231 4.35441C17.5196 4.36849 17.5196 4.38257 17.5196 4.38609ZM17.1676 3.39342C17.1711 3.4251 17.1711 3.44974 17.1746 3.47438C17.1782 3.49198 17.1958 3.49902 17.2134 3.49902C17.2556 3.4955 17.2767 3.46382 17.2626 3.4251C17.245 3.38638 17.238 3.38638 17.1676 3.39342ZM17.245 2.62603C17.2204 2.61547 17.1958 2.60843 17.1746 2.63659C17.1746 2.66827 17.1641 2.70347 17.1852 2.73163C17.2697 2.72107 17.2732 2.71403 17.245 2.62603ZM17.1711 3.86863C17.245 3.88271 17.2591 3.87215 17.2556 3.81583C17.2556 3.80175 17.2486 3.78415 17.245 3.77007C17.1817 3.76303 17.1746 3.76655 17.1711 3.81231C17.1676 3.82991 17.1711 3.84751 17.1711 3.86863ZM17.1746 3.95664C17.1711 3.9848 17.1711 4.00592 17.1711 4.02352C17.1711 4.03056 17.1711 4.0376 17.1746 4.04112C17.1782 4.06576 17.2169 4.07632 17.238 4.06224C17.2626 4.04464 17.2662 3.98128 17.238 3.95312C17.2204 3.95664 17.1993 3.95664 17.1746 3.95664ZM17.1746 3.10829C17.2521 3.10829 17.2591 3.10477 17.2556 3.04844C17.2556 3.03436 17.2486 3.02028 17.2415 3.0062C17.1782 3.0062 17.1746 3.00972 17.1711 3.04844C17.1676 3.06604 17.1711 3.08364 17.1746 3.10829ZM17.1782 4.34385C17.1641 4.37905 17.1606 4.41073 17.1746 4.43537C17.1817 4.44593 17.1993 4.45649 17.2134 4.45649C17.2239 4.45649 17.2415 4.44241 17.245 4.43185C17.2521 4.41073 17.2521 4.38961 17.2486 4.36497C17.2486 4.34737 17.2345 4.33681 17.2169 4.33681C17.2063 4.34033 17.1958 4.34385 17.1782 4.34385ZM17.2521 2.92172C17.2521 2.88652 17.2521 2.8654 17.2521 2.84428C17.2521 2.82316 17.238 2.80908 17.2169 2.80908C17.1887 2.80908 17.1746 2.81964 17.1711 2.84428C17.1711 2.8654 17.1711 2.88652 17.1746 2.91468C17.1993 2.91468 17.2204 2.9182 17.2521 2.92172ZM17.1782 4.15024C17.1746 4.16784 17.1711 4.18192 17.1711 4.19952C17.1711 4.21361 17.1746 4.23121 17.1782 4.24529C17.2415 4.25233 17.2415 4.25233 17.2521 4.23825C17.2767 4.20657 17.2556 4.1784 17.245 4.14672C17.2169 4.15024 17.1993 4.15024 17.1782 4.15024ZM17.245 3.5835C17.1746 3.57646 17.1711 3.57998 17.1676 3.62574C17.1676 3.63982 17.1711 3.65743 17.1711 3.67151C17.2134 3.67855 17.2134 3.67855 17.2521 3.66447C17.2521 3.63982 17.2486 3.61166 17.245 3.5835Z" fill="var(--fill-0, #A88B46)"/>
<path id="Vector_12" fill-rule="evenodd" clip-rule="evenodd" d="M4.59728 14.1229C4.59376 14.0948 4.59376 14.0737 4.59376 14.0525C4.59376 12.8733 4.59376 11.694 4.59376 10.5148C4.59376 10.4937 4.59024 10.4761 4.59376 10.455C4.6008 10.4092 4.59728 10.3705 4.548 10.3494C4.54096 10.3458 4.53392 10.3353 4.5304 10.3282C4.52688 10.3036 4.54096 10.2895 4.56208 10.2895C4.59728 10.2895 4.62192 10.2684 4.65009 10.2578C4.71345 10.2297 4.77681 10.198 4.84369 10.1698C4.90706 10.1452 4.96338 10.11 5.02674 10.0818C5.0549 10.0677 5.08306 10.0607 5.11122 10.0783C5.11122 10.3071 5.11122 10.5324 5.11122 10.7612C5.11122 11.8454 5.11122 12.9296 5.11122 14.0173C5.11122 14.1405 5.11122 14.1405 4.98802 14.137C4.87889 14.137 4.77329 14.137 4.66417 14.137C4.64305 14.1335 4.62192 14.1265 4.59728 14.1229Z" fill="var(--fill-0, #A88B46)"/>
<path id="Vector_13" fill-rule="evenodd" clip-rule="evenodd" d="M15.8828 3.64701C15.8159 3.60124 15.7596 3.56252 15.6998 3.52028C15.6505 3.48508 15.5977 3.45692 15.5519 3.4182C15.5343 3.40412 15.5132 3.39356 15.4956 3.383C15.4639 3.3654 15.4358 3.34428 15.4076 3.32315C15.3548 3.28091 15.302 3.23867 15.2457 3.19995C15.1682 3.14715 15.0908 3.09787 15.0134 3.04506C14.9324 2.98874 14.855 2.93242 14.7775 2.8761C14.7564 2.86202 14.7353 2.84794 14.7106 2.83738C14.686 2.82682 14.6825 2.8057 14.6719 2.78106C14.686 2.77401 14.6965 2.76345 14.7071 2.76345C14.8585 2.74233 14.9817 2.66841 15.0943 2.57689C15.2351 2.46072 15.3337 2.31288 15.3935 2.14391C15.4323 2.03479 15.4604 1.91862 15.4534 1.80246C15.4499 1.77078 15.4534 1.7391 15.4534 1.7039C15.4886 1.69334 15.5167 1.67926 15.5484 1.67222C15.6188 1.65814 15.6892 1.65109 15.7596 1.64053C15.7772 1.63701 15.7913 1.63701 15.8089 1.63349C15.9251 1.59829 16.0412 1.61237 16.1574 1.60885C16.175 1.60885 16.1891 1.61237 16.2102 1.61589C16.2067 1.63701 16.2102 1.66166 16.1996 1.6687C16.1504 1.70742 16.1328 1.76374 16.1152 1.82006C16.1116 1.83414 16.1116 1.8447 16.1046 1.85878C16.0764 1.91158 16.0905 1.96439 16.1046 2.02071C16.1222 2.08407 16.1644 2.12631 16.2243 2.15447C16.2313 2.15799 16.2419 2.15799 16.2524 2.16151C16.3369 2.19671 16.3686 2.26008 16.344 2.34808C16.3404 2.36216 16.3334 2.37976 16.3264 2.39384C16.2912 2.49945 16.2524 2.60857 16.2243 2.71769C16.2067 2.78458 16.182 2.85498 16.1891 2.9289C16.1926 2.95706 16.1856 2.98874 16.1891 3.0169C16.1996 3.11899 16.1574 3.20699 16.1081 3.29147C16.0694 3.35836 16.0307 3.42524 15.992 3.49212C15.9814 3.51324 15.9708 3.5414 15.9673 3.56604C15.9673 3.61532 15.9356 3.63997 15.8828 3.64701Z" fill="var(--fill-0, #A88B46)"/>
<path id="Vector_14" fill-rule="evenodd" clip-rule="evenodd" d="M3.52719 11.3524C3.59407 11.3453 3.64687 11.3172 3.70319 11.289C3.81232 11.2362 3.92496 11.1869 4.03408 11.1341C4.04465 11.1306 4.05873 11.1306 4.07633 11.1306C4.07985 11.1552 4.08689 11.1764 4.08689 11.1975C4.08689 12.1268 4.08689 13.0596 4.08689 13.9889C4.08689 14.0171 4.08689 14.0488 4.08337 14.0769C4.07985 14.1051 4.05873 14.1227 4.03056 14.1262C4.00944 14.1297 3.9848 14.1262 3.96368 14.1262C3.8616 14.1262 3.76303 14.1262 3.66095 14.1262C3.58351 14.1262 3.56943 14.1121 3.56943 14.0347C3.56943 13.8129 3.57295 13.5912 3.57295 13.3694C3.57295 12.771 3.57295 12.1726 3.57295 11.5741C3.57295 11.5495 3.57295 11.5213 3.57647 11.4967C3.57647 11.465 3.57295 11.4404 3.54127 11.4228C3.50255 11.4122 3.51311 11.3876 3.52719 11.3524Z" fill="var(--fill-0, #A88B46)"/>
<path id="Vector_15" fill-rule="evenodd" clip-rule="evenodd" d="M16.9424 4.49871C16.9177 4.47759 16.9001 4.46703 16.8931 4.45295C16.7945 4.25231 16.622 4.1291 16.4355 4.01998C16.3404 3.96366 16.2489 3.90381 16.1715 3.82637C16.1222 3.77709 16.094 3.72077 16.1257 3.65036C16.1292 3.6398 16.1328 3.62572 16.1363 3.61164C16.1398 3.53068 16.1856 3.47084 16.2348 3.41452C16.2982 3.34059 16.3404 3.26667 16.3616 3.16811C16.3827 3.05194 16.3756 2.93578 16.3827 2.81961C16.3862 2.73513 16.4214 2.66825 16.4672 2.60841C16.4988 2.56617 16.5411 2.53448 16.6009 2.54856C16.6256 2.55561 16.6537 2.54152 16.6748 2.55209C16.7277 2.57321 16.7629 2.60489 16.7769 2.67177C16.7875 2.73865 16.791 2.80201 16.7734 2.86538C16.7593 2.92874 16.7417 2.9921 16.7206 3.05194C16.703 3.10826 16.703 3.16107 16.7241 3.21387C16.7488 3.27723 16.7769 3.34059 16.8297 3.38635C16.879 3.43212 16.9037 3.49548 16.9213 3.55532C16.9459 3.64332 16.9635 3.73133 16.96 3.82637C16.9565 3.95662 16.9565 4.08686 16.9529 4.2171C16.9529 4.23823 16.9529 4.26287 16.9459 4.28399C16.9389 4.31215 16.9424 4.33327 16.9494 4.36143C16.9565 4.39311 16.9565 4.43535 16.9424 4.49871Z" fill="var(--fill-0, #A88B46)"/>
<path id="Vector_16" fill-rule="evenodd" clip-rule="evenodd" d="M3.52358 11.1449C3.53062 11.1026 3.53414 11.0709 3.53766 11.0393C3.54118 11.0111 3.53766 10.9794 3.53766 10.9513C3.53766 10.8773 3.53766 10.8773 3.46374 10.8386C3.47782 10.8245 3.48838 10.8069 3.50246 10.7999C3.5623 10.7788 3.61862 10.7506 3.67494 10.7189C3.73127 10.6873 3.79111 10.6661 3.85095 10.638C3.89671 10.6169 3.94247 10.5887 3.98823 10.5641C4.0164 10.55 4.04808 10.5676 4.0516 10.5993C4.05512 10.6415 4.0516 10.6837 4.0516 10.726C4.0516 10.7717 4.0516 10.8175 4.0516 10.8633C4.0516 10.8914 4.04104 10.9125 4.0164 10.9266C3.99175 10.9407 3.96711 10.9583 3.93895 10.9653C3.85095 10.9935 3.77703 11.0463 3.69254 11.0745C3.66086 11.085 3.6327 11.1097 3.60102 11.1273C3.58342 11.1378 3.5623 11.1378 3.52358 11.1449Z" fill="var(--fill-0, #A88B46)"/>
<path id="Vector_17" fill-rule="evenodd" clip-rule="evenodd" d="M17.5301 1.66866C17.6181 1.67218 17.692 1.6229 17.7729 1.59826C17.7835 1.59474 17.7976 1.5877 17.8081 1.5877C17.8187 1.5877 17.8363 1.59474 17.8433 1.60178C17.8609 1.62994 17.875 1.6581 17.8715 1.6933C17.868 1.77426 17.8715 1.85523 17.868 1.93619C17.8645 1.99955 17.8856 2.04883 17.9278 2.0946C17.9701 2.14036 18.0123 2.1826 18.051 2.23188C18.0686 2.253 18.0827 2.28116 18.0898 2.30932C18.1003 2.341 18.0757 2.37269 18.0475 2.37269C17.9771 2.37269 17.9208 2.40085 17.8715 2.44661C17.8539 2.46421 17.8152 2.45365 17.8046 2.42901C17.7765 2.35861 17.7413 2.28468 17.7729 2.20372C17.8187 2.09108 17.7835 1.98899 17.7272 1.89043C17.7201 1.87635 17.7096 1.86227 17.699 1.85171C17.6603 1.80243 17.6251 1.75314 17.5617 1.73202C17.5441 1.72146 17.523 1.7109 17.5301 1.66866Z" fill="var(--fill-0, #A88B46)"/>
<path id="Vector_18" fill-rule="evenodd" clip-rule="evenodd" d="M17.5408 2.09108C17.495 2.10868 17.4457 2.10516 17.4 2.09812C17.319 2.08756 17.2416 2.06996 17.1817 2.00659C17.143 1.96435 17.136 1.90451 17.1747 1.86227C17.1852 1.85171 17.1993 1.84115 17.2134 1.83411C17.2873 1.79891 17.3612 1.79539 17.4352 1.83763C17.4739 1.85875 17.4704 1.89747 17.4844 1.91859C17.5126 1.95731 17.583 1.92211 17.583 1.99603C17.5126 2.00659 17.4492 2.01011 17.3964 1.95379C17.4105 1.93619 17.4246 1.91859 17.4457 1.89395C17.4281 1.88691 17.4176 1.87635 17.4105 1.87987C17.3683 1.88339 17.326 1.88339 17.2908 1.91507C17.2662 1.93619 17.2627 1.97139 17.2873 1.98899C17.3084 2.00307 17.3331 2.01715 17.3577 2.02067C17.4105 2.03123 17.4633 2.05587 17.5196 2.05587C17.5337 2.04883 17.5478 2.06291 17.5408 2.09108Z" fill="var(--fill-0, #A88B46)"/>
<path id="Vector_19" fill-rule="evenodd" clip-rule="evenodd" d="M17.7697 2.70002C17.7661 2.6965 17.7556 2.68946 17.7485 2.6789C17.745 2.67186 17.745 2.65778 17.7521 2.65426C17.7802 2.62962 17.8119 2.6085 17.8436 2.58738C17.8506 2.58386 17.8682 2.5909 17.8753 2.59794C17.8823 2.60498 17.8858 2.62258 17.8823 2.63314C17.8682 2.66834 17.8154 2.70002 17.7697 2.70002Z" fill="var(--fill-0, #A88B46)"/>
<path id="Vector_20" fill-rule="evenodd" clip-rule="evenodd" d="M13.6939 5.27326C13.6939 5.27699 13.6939 5.27699 13.6902 5.28072C13.6902 5.27699 13.6865 5.27699 13.6865 5.27326C13.6865 5.26954 13.6902 5.27326 13.6939 5.27326Z" fill="var(--fill-0, #A88B46)"/>
<path id="Vector_21" fill-rule="evenodd" clip-rule="evenodd" d="M9.17367 5.32959L9.18112 5.33331H9.16994L9.17367 5.32959Z" fill="var(--fill-0, #A88B46)"/>
<path id="Vector_22" d="M17.1852 5.66388C17.1781 5.56532 17.1782 5.46324 17.1394 5.36467C17.1183 5.30835 17.1077 5.24499 17.0866 5.18867C17.062 5.1253 17.0303 5.06546 17.0092 5.0021C16.981 4.92114 16.9493 4.84017 16.9001 4.76625C16.8789 4.73457 16.8613 4.69937 16.8402 4.66769C16.7593 4.54096 16.6677 4.4248 16.5621 4.31919C16.5269 4.28399 16.4882 4.24879 16.446 4.23471C16.3298 4.19247 16.2348 4.11503 16.1292 4.04814C16.0411 3.99182 15.9567 3.9355 15.8687 3.87918C15.7842 3.82286 15.6962 3.76301 15.6117 3.70669C15.5307 3.65037 15.4462 3.59053 15.3653 3.53421C15.2808 3.47788 15.1928 3.4286 15.1154 3.36524C14.9816 3.2526 14.8267 3.16811 14.6894 3.06251C14.5979 2.99563 14.4993 2.93578 14.4078 2.87242C14.3057 2.80202 14.2072 2.73162 14.1051 2.66121C14.0065 2.59081 13.922 2.49577 13.8235 2.42889C13.7988 2.3796 13.746 2.362 13.7143 2.32328C13.6545 2.24936 13.5947 2.17896 13.5348 2.10503C13.5031 2.06631 13.4679 2.03463 13.4433 1.99239C13.3764 1.87975 13.3166 1.7671 13.2779 1.64038C13.2567 1.56646 13.2321 1.49253 13.2391 1.41157C13.2426 1.37637 13.2391 1.34117 13.2391 1.30245C13.2356 1.23204 13.2427 1.16516 13.2673 1.1018C13.299 1.02084 13.3236 0.932833 13.394 0.876511C13.4327 0.84483 13.4785 0.816669 13.5207 0.788508C13.5982 0.739226 13.658 0.679384 13.6932 0.594901C13.7108 0.55618 13.7108 0.524499 13.6827 0.489297C13.651 0.443536 13.6087 0.418895 13.5559 0.411855C13.4961 0.404814 13.4398 0.408335 13.3835 0.429455C13.3483 0.443536 13.3271 0.429455 13.3236 0.390734C13.3201 0.369613 13.3201 0.344972 13.3201 0.323852C13.3201 0.28513 13.3131 0.246409 13.299 0.211208C13.2638 0.116164 13.2215 0.084483 13.1194 0.0880031C13.0983 0.0880031 13.0737 0.084483 13.0526 0.084483C12.9892 0.0880031 12.9223 0.084483 12.873 0.140805C12.8695 0.144325 12.859 0.140805 12.8519 0.144325C12.8202 0.116164 12.785 0.084483 12.7498 0.056322C12.7006 0.0176006 12.6477 4.19632e-09 12.5914 0.0492818C12.5738 0.0668824 12.5457 0.0704025 12.5316 0.0950434C12.5175 0.119684 12.4858 0.123204 12.4647 0.102084C12.4401 0.0809629 12.4189 0.056322 12.3943 0.0352013C12.3661 0.0105604 12.338 0 12.2957 0C12.25 0 12.2148 0.00704024 12.1831 0.0422415C12.1479 0.0809629 12.1127 0.116164 12.074 0.158406C12.0528 0.151365 12.0317 0.140805 12.0071 0.130245C11.9648 0.112644 11.9261 0.0880031 11.8839 0.0739226C11.7959 0.0457616 11.722 0.0739226 11.6762 0.154886C11.6656 0.172486 11.6621 0.190087 11.6586 0.211208C11.648 0.264009 11.634 0.27457 11.5776 0.256969C11.5283 0.242889 11.472 0.264009 11.4263 0.235848C11.4227 0.232328 11.4122 0.235848 11.4087 0.235848C11.3488 0.253449 11.296 0.341452 11.3101 0.397774C11.3171 0.425935 11.3418 0.450576 11.3136 0.478737C11.289 0.503378 11.2573 0.492818 11.2291 0.492818C11.1693 0.492818 11.12 0.510418 11.0883 0.5597C11.0813 0.57378 11.0672 0.584341 11.0637 0.587861C11.0426 0.661784 11.1095 0.718106 11.0743 0.784988C10.9862 0.795548 10.9053 0.823709 10.8454 0.890592C10.8384 0.939874 10.8349 0.982115 10.8595 1.02788C10.8771 1.05956 10.8877 1.09476 10.8982 1.12644C10.9158 1.16516 10.9088 1.18276 10.8666 1.20388C10.8314 1.22148 10.7962 1.23908 10.768 1.26372C10.7046 1.31653 10.6906 1.37989 10.7293 1.45381C10.7398 1.47493 10.761 1.49605 10.7786 1.51365C10.8384 1.5735 10.8314 1.59462 10.7363 1.61926C10.7152 1.65798 10.6906 1.70022 10.6659 1.73894C10.6448 1.77414 10.6448 1.8023 10.6659 1.83751C10.6941 1.88679 10.7328 1.92551 10.7891 1.95015C10.7821 1.97127 10.7786 1.99239 10.768 2.00647C10.7539 2.02407 10.7363 2.03815 10.7187 2.05575C10.673 2.09799 10.6694 2.15432 10.687 2.20008C10.7011 2.24232 10.7258 2.28808 10.7821 2.29864C10.8067 2.30568 10.8314 2.31624 10.8419 2.34792C10.8278 2.37256 10.8138 2.40073 10.7997 2.42889C10.7821 2.46057 10.7856 2.48873 10.8067 2.52041C10.8454 2.57673 10.8912 2.61897 10.9616 2.62601C10.9862 2.62953 11.0109 2.64361 11.0461 2.65417C11.0074 2.72106 10.9581 2.77034 10.9264 2.8337C10.9757 2.91818 10.9757 2.91818 11.0461 2.95691C11.0672 2.96747 11.0883 2.97803 11.1059 2.98859C11.1341 3.00619 11.1447 3.02731 11.1411 3.06251C11.1376 3.07307 11.1341 3.08011 11.1306 3.09067C11.1095 3.16107 11.1341 3.22795 11.201 3.26316C11.2151 3.2702 11.2291 3.27372 11.2467 3.28076C11.2855 3.29132 11.3101 3.31596 11.3066 3.3582C11.3031 3.41804 11.3383 3.46028 11.3735 3.50252C11.4087 3.54829 11.4474 3.56237 11.5002 3.53421C11.5037 3.53069 11.5107 3.53773 11.5213 3.53773C11.5319 3.55533 11.5424 3.57645 11.5495 3.59757C11.5847 3.67853 11.6023 3.69261 11.6868 3.68909C11.7079 3.68909 11.7325 3.68909 11.7607 3.68909C11.7642 3.72077 11.7712 3.74541 11.7712 3.77005C11.7677 3.84046 11.7994 3.88622 11.8592 3.92494C11.905 3.90382 11.9578 3.9003 12.0141 3.9003C12.0176 3.9707 12.0388 4.03054 12.081 4.08687C12.1162 4.09743 12.1514 4.11503 12.1901 4.11855C12.2253 4.12207 12.2641 4.10447 12.3028 4.09743C12.3133 4.12911 12.3204 4.15727 12.3309 4.18191C12.3697 4.26991 12.4471 4.29807 12.5316 4.24879C12.5844 4.21711 12.6196 4.23119 12.6548 4.26287C12.7393 4.34735 12.8449 4.41072 12.9329 4.49168C12.961 4.51632 12.9927 4.54096 13.0244 4.56208C13.0772 4.6008 13.13 4.63601 13.1828 4.67473C13.2814 4.74865 13.3799 4.82257 13.4785 4.89649C13.5348 4.93874 13.5911 4.9845 13.6475 5.02674C13.658 5.03378 13.6721 5.04786 13.651 5.06898C13.5806 5.02674 13.5067 4.98802 13.4363 4.94226C13.3377 4.87889 13.2427 4.81201 13.1476 4.74513C13.0596 4.68529 12.9751 4.61841 12.8801 4.57264C12.7815 4.52336 12.6935 4.46 12.5985 4.40016C12.5844 4.39312 12.5703 4.3896 12.5562 4.38256C12.4225 4.48816 12.2605 4.46352 12.1937 4.25935C12.1585 4.25935 12.1197 4.25935 12.081 4.25583C12.0141 4.24527 11.9578 4.22063 11.9332 4.15023C11.9156 4.09743 11.8804 4.07631 11.824 4.06927C11.7431 4.0587 11.6868 4.01294 11.6551 3.93902C11.648 3.92142 11.641 3.90382 11.6304 3.8827C11.5213 3.8827 11.4368 3.85102 11.4192 3.73133C11.384 3.70317 11.3488 3.68909 11.3101 3.68205C11.2714 3.67501 11.2467 3.64685 11.2327 3.61517C11.2256 3.59757 11.2256 3.57645 11.2221 3.55885C11.2186 3.51661 11.1975 3.48492 11.1552 3.47084C11.1024 3.45324 11.0637 3.42508 11.0285 3.38636C10.9968 3.35116 10.9546 3.33356 10.9088 3.33356C10.863 3.33004 10.8173 3.323 10.775 3.31596C10.6976 3.3054 10.6202 3.2878 10.5427 3.27724C10.4477 3.26668 10.3491 3.25964 10.2505 3.24556C9.98301 3.21387 9.719 3.19979 9.45499 3.2526C9.36347 3.24908 9.28251 3.2878 9.19803 3.3054C9.1065 3.323 9.0185 3.3582 8.93402 3.40044C8.78265 3.47436 8.62072 3.52365 8.48344 3.62221C8.45176 3.64685 8.43768 3.64333 8.406 3.61869C8.39192 3.60813 8.37784 3.59405 8.36024 3.57997C8.28983 3.52717 8.22647 3.4638 8.15255 3.42156C8.04342 3.35468 7.9343 3.28428 7.80405 3.24908C7.76181 3.23852 7.72309 3.22443 7.68437 3.20683C7.54709 3.14347 7.40628 3.08011 7.27956 2.99563C7.24788 2.97451 7.21619 2.94987 7.18451 2.92522C7.09299 2.86186 6.99795 2.80554 6.90994 2.74218C6.80786 2.66826 6.71282 2.58025 6.62481 2.49225C6.55793 2.42185 6.48753 2.35496 6.41713 2.28808C6.37136 2.24232 6.33616 2.186 6.29392 2.13672C6.21296 2.03815 6.14608 1.93255 6.10383 1.81638C6.07215 1.72838 6.04399 1.63686 6.05455 1.54181C6.05807 1.52421 6.05807 1.50309 6.05807 1.48197C6.05455 1.37637 6.07919 1.27429 6.12144 1.17924C6.18128 1.05252 6.2552 0.939874 6.3784 0.872991C6.51569 0.795548 6.65649 0.767387 6.80786 0.823709C6.83954 0.83427 6.87122 0.84131 6.89938 0.855391C6.97683 0.890592 7.05779 0.918753 7.12819 0.964514C7.23027 1.02788 7.31828 1.10884 7.39924 1.19684C7.5154 1.32005 7.58581 1.46789 7.61397 1.63686C7.61749 1.65094 7.61397 1.66502 7.62101 1.67558C7.65269 1.76358 7.65621 1.85511 7.66325 1.94311C7.67381 2.05223 7.69493 2.16136 7.71253 2.27048C7.72309 2.3268 7.73013 2.38664 7.75477 2.43945C7.77237 2.47465 7.78645 2.50985 7.80405 2.54505C7.83222 2.59433 7.85686 2.65065 7.90614 2.68586C7.96246 2.7281 8.01526 2.77738 8.08567 2.7985C8.11735 2.80906 8.14903 2.8161 8.17719 2.83018C8.26167 2.87594 8.34967 2.86186 8.43416 2.8513C8.50104 2.84426 8.56792 2.76682 8.57144 2.70346C8.57496 2.64009 8.56088 2.57673 8.5292 2.52745C8.44824 2.39369 8.34967 2.274 8.22647 2.17896C8.14551 2.1156 8.0751 2.05223 8.01878 1.96423C7.95542 1.86215 7.89558 1.76006 7.8463 1.65094C7.78293 1.51365 7.74069 1.36581 7.65973 1.23556C7.60341 1.14756 7.55413 1.05604 7.4802 0.982115C7.45908 0.960994 7.44148 0.936353 7.42388 0.918753C7.37812 0.872991 7.33588 0.823709 7.2866 0.784988C7.23379 0.742747 7.17747 0.707545 7.11763 0.672344C7.01907 0.612502 6.91698 0.57026 6.80082 0.56322C6.77618 0.56322 6.74802 0.55266 6.72338 0.54914C6.66353 0.535059 6.60721 0.535059 6.55089 0.54914C6.52625 0.55618 6.50161 0.5597 6.47345 0.56322C6.34672 0.57026 6.2376 0.623062 6.13552 0.696985C6.02991 0.774428 5.96303 0.880031 5.89967 0.989155C5.86799 1.049 5.83631 1.11236 5.82222 1.17924C5.80814 1.25316 5.79054 1.32357 5.77998 1.39749C5.75182 1.5735 5.7835 1.73894 5.83278 1.90439C5.85743 1.98887 5.88559 2.06983 5.92783 2.14728C5.98063 2.2388 6.01583 2.3444 6.09327 2.42185C6.10031 2.42889 6.10383 2.43593 6.11087 2.44649C6.16368 2.51337 6.20944 2.58377 6.26928 2.64009C6.3432 2.71402 6.42417 2.77386 6.50513 2.84074C6.55793 2.88298 6.61073 2.92522 6.66353 2.96747C6.73042 3.02027 6.79378 3.07307 6.86418 3.12235C7.01203 3.22795 7.14931 3.34764 7.28308 3.47084C7.3394 3.52365 7.38868 3.58349 7.43444 3.65037C7.50132 3.75245 7.56117 3.85806 7.65269 3.94606C7.73365 4.01998 7.80406 4.10447 7.91318 4.16079C7.90614 4.18543 7.90966 4.21007 7.8991 4.22063C7.84982 4.26639 7.82166 4.32271 7.78645 4.37904C7.71253 4.49168 7.65973 4.61136 7.61397 4.73809C7.52597 4.99154 7.54357 5.24499 7.61397 5.49844C7.68085 5.73076 7.79701 5.93845 7.94486 6.12854C8.0399 6.24822 8.15607 6.35031 8.26519 6.45239C8.27575 6.46295 8.28631 6.46999 8.29687 6.47703C8.3708 6.52631 8.44472 6.57911 8.52216 6.6284C8.6172 6.68472 8.70873 6.74456 8.80729 6.79384C8.91641 6.84664 9.02554 6.90649 9.13114 6.96633C9.19803 7.00505 9.25435 7.05785 9.32827 7.08249C9.33883 7.08601 9.34587 7.09305 9.35291 7.09657C9.41979 7.14233 9.49372 7.17754 9.5606 7.2233C9.631 7.27258 9.69436 7.32538 9.74012 7.39578C9.88093 7.60699 9.97949 7.8358 10.0499 8.07869C10.0675 8.14205 10.0851 8.20541 10.0851 8.26878C10.0816 8.3427 10.1097 8.39198 10.1555 8.44478C10.2365 8.5363 10.3139 8.63135 10.3773 8.74047C10.4125 8.80031 10.4477 8.86368 10.4934 8.92C10.5814 9.02912 10.6378 9.15585 10.6835 9.28609C10.7117 9.36001 10.7434 9.43042 10.7715 9.50082C10.8173 9.61698 10.8771 9.72963 10.9053 9.85283C10.9299 9.96548 10.9651 10.0816 10.9405 10.1978C10.9264 10.2647 10.9475 10.3175 10.9862 10.3703C11.0038 10.3914 11.0144 10.4196 11.032 10.4442C11.0496 10.4724 11.0461 10.5005 11.0285 10.5252C11.0144 10.5498 10.9968 10.5745 10.9792 10.5991C10.9264 10.6625 10.9194 10.7258 10.9581 10.7997C10.9581 10.8033 10.9616 10.8068 10.9616 10.8103C10.9862 10.8701 11.0038 10.8807 11.0637 10.8807C11.1587 10.8807 11.2538 10.8807 11.3453 10.8807C11.56 10.8842 11.7748 10.8737 11.9895 10.8807C12.0036 10.8807 12.0141 10.8772 12.0247 10.8737C12.0388 10.842 12.0212 10.8279 12.0036 10.8138C11.9332 10.7434 11.8592 10.673 11.7888 10.6026C11.7712 10.585 11.7501 10.5674 11.7607 10.5287C11.7748 10.5287 11.7959 10.5252 11.8029 10.5357C11.8698 10.5991 11.9508 10.6378 12.0106 10.7082C12.0704 10.7751 12.1338 10.8385 12.1972 10.9018C12.2218 10.8948 12.2429 10.8877 12.2465 10.8631C12.2183 10.8279 12.1972 10.7927 12.169 10.761C12.088 10.6625 12.0212 10.5569 11.9296 10.4689C11.9085 10.4477 11.8839 10.4196 11.8733 10.3914C11.8311 10.2928 11.7783 10.2013 11.7149 10.1133C11.7008 10.0922 11.6938 10.0746 11.7044 10.05C11.7255 9.99716 11.7079 9.9514 11.6797 9.90211C11.641 9.83523 11.6058 9.76835 11.5706 9.69795C11.5178 9.59234 11.465 9.48322 11.4122 9.37761C11.3594 9.27905 11.2995 9.18753 11.2503 9.09248C11.1517 8.90944 11.0567 8.72639 10.9475 8.55039C10.9299 8.52222 10.9194 8.49406 10.9194 8.46238C10.9194 8.31454 10.9194 8.17021 10.9194 8.02237C10.9194 7.99773 10.9229 7.96956 10.9299 7.94492C10.9581 7.8358 10.9722 7.72668 10.9722 7.61755C10.9722 7.58235 10.9686 7.54715 10.9757 7.50843C10.9968 7.36762 11.0074 7.2233 11.0109 7.07897C11.0144 6.98745 11.0285 6.89945 11.0391 6.80792C11.0391 6.79384 11.0461 6.77624 11.0531 6.76216C11.0602 6.74456 11.0707 6.734 11.0919 6.73752C11.1024 6.74104 11.1165 6.74808 11.12 6.75864C11.1411 6.8044 11.1623 6.85016 11.1693 6.90297C11.1763 6.96633 11.1869 7.02969 11.201 7.09305C11.2045 7.11065 11.2221 7.12473 11.2327 7.14234C11.289 7.14586 11.3453 7.14234 11.4016 7.1529C11.4826 7.16698 11.5635 7.16698 11.6445 7.1705C11.7642 7.17402 11.8839 7.18106 12.0071 7.18458C12.0669 7.1881 12.1232 7.19514 12.1831 7.19866C12.4401 7.19866 12.697 7.19866 12.954 7.19866C12.9786 7.19866 13.0068 7.19866 13.0314 7.19514C13.1722 7.1705 13.3166 7.1705 13.4609 7.1705C13.5207 7.1705 13.5806 7.17402 13.6369 7.16346C13.6932 7.1529 13.746 7.1529 13.8023 7.14938C13.9608 7.13881 14.1192 7.13177 14.2811 7.12121C14.2881 7.12121 14.2952 7.12121 14.2987 7.11769C14.4219 7.07545 14.5521 7.10009 14.6753 7.06841C14.7246 7.05433 14.7774 7.05433 14.8267 7.04025C14.8865 7.02265 14.9499 7.00153 15.0168 7.00857C15.0344 7.01209 15.0555 7.00505 15.0731 6.99801C15.133 6.98393 15.1928 6.96281 15.2526 6.95577C15.4075 6.94169 15.5554 6.88537 15.7103 6.86777C15.749 6.86424 15.7912 6.84312 15.8335 6.84312C15.844 6.84312 15.8511 6.83608 15.8581 6.83256C15.9074 6.8044 15.9567 6.7692 16.0095 6.74808C16.0588 6.72696 16.0904 6.68472 16.1397 6.6636C16.2101 6.63192 16.277 6.58968 16.3474 6.55799C16.3826 6.54039 16.4213 6.53335 16.46 6.52279C16.6044 6.49111 16.7487 6.48759 16.8965 6.49463C16.9388 6.49815 16.981 6.50167 17.0197 6.51575C17.0549 6.52631 17.0937 6.53687 17.1359 6.51575C17.1465 6.46295 17.157 6.40663 17.1676 6.35031C17.1711 6.32215 17.1746 6.29046 17.1782 6.2623C17.1817 6.22358 17.1817 6.18486 17.1887 6.14614C17.1993 5.96309 17.1958 5.81525 17.1852 5.66388ZM12.2465 2.83018C12.2394 2.8337 12.2253 2.83722 12.2218 2.8337C12.1901 2.81258 12.1585 2.78794 12.1303 2.7633C11.9895 2.66121 11.8522 2.54857 11.7431 2.41129C11.6516 2.29512 11.5882 2.1684 11.5459 2.02407C11.5248 1.95367 11.5248 1.88327 11.5213 1.81286C11.5143 1.6791 11.5389 1.54886 11.5776 1.42213C11.6023 1.34469 11.6234 1.26725 11.6586 1.19332C11.6692 1.1722 11.6832 1.16516 11.7079 1.1722C11.7255 1.20036 11.7184 1.22852 11.7114 1.25668C11.6656 1.40805 11.6516 1.56294 11.6621 1.71782C11.6656 1.79174 11.6903 1.86215 11.7008 1.93607C11.7184 2.05223 11.7748 2.15784 11.824 2.25992C11.8909 2.40073 11.9789 2.52745 12.0845 2.64361C12.1303 2.6929 12.1901 2.72458 12.2324 2.77738C12.2394 2.78442 12.2465 2.79146 12.25 2.7985C12.2535 2.80906 12.2535 2.82314 12.2465 2.83018ZM12.602 2.72458C12.5738 2.7105 12.5421 2.69642 12.5175 2.6753C12.4541 2.62249 12.3943 2.56969 12.3345 2.51689C12.2042 2.40073 12.1021 2.26696 12.0352 2.10503C12.0141 2.05575 11.9895 2.00647 11.9754 1.95367C11.9296 1.77062 11.9437 1.59462 11.993 1.41509C12.0071 1.36581 12.0352 1.32005 12.0528 1.27077C12.0669 1.23556 12.0775 1.19684 12.0916 1.16164C12.1021 1.137 12.1162 1.11588 12.1549 1.11588C12.1585 1.16868 12.1444 1.21796 12.1373 1.26372C12.1092 1.39045 12.088 1.52069 12.0951 1.65094C12.0986 1.70726 12.1127 1.7671 12.1197 1.82342C12.1444 1.95367 12.1901 2.07687 12.2465 2.19656C12.3309 2.37256 12.4471 2.52745 12.5914 2.66121C12.6055 2.6753 12.6196 2.6929 12.6372 2.71402C12.6196 2.72106 12.609 2.7281 12.602 2.72458ZM13.0666 2.85834C13.049 2.84778 13.035 2.8337 13.0209 2.82314C12.9646 2.77738 12.9153 2.7281 12.8625 2.68234C12.7569 2.58729 12.6689 2.47465 12.609 2.3444C12.5738 2.27048 12.5492 2.19656 12.5245 2.1156C12.4893 1.98183 12.4893 1.85159 12.514 1.72134C12.5457 1.5735 12.5985 1.42917 12.6689 1.29541C12.6724 1.28837 12.6794 1.27781 12.6865 1.27429C12.697 1.27429 12.7146 1.27781 12.7182 1.28133C12.7217 1.29541 12.7252 1.31301 12.7182 1.32709C12.6865 1.41157 12.6689 1.49957 12.6618 1.5911C12.6618 1.59462 12.6618 1.59814 12.6618 1.60166C12.6266 1.70022 12.6372 1.79878 12.6442 1.90087C12.6477 1.93607 12.6583 1.97127 12.6618 2.00647C12.69 2.19304 12.7674 2.362 12.8625 2.52041C12.8695 2.53449 12.8801 2.54857 12.8871 2.56265C12.9329 2.64713 12.9857 2.72106 13.0596 2.78442C13.0842 2.80554 13.1089 2.82666 13.1089 2.86186C13.0948 2.87242 13.0807 2.86538 13.0666 2.85834Z" fill="var(--fill-0, #A88B46)"/>
</g>
</svg>
